<mxfile host="app.diagrams.net" agent="Mozilla/5.0 (X11; Linux x86_64) AppleWebKit/537.36 (KHTML, like Gecko) Chrome/134.0.0.0 Safari/537.36" version="26.1.1">
  <diagram name="Page-1" id="Ha8s6_4_4nTsxysomdbX">
    <mxGraphModel dx="190" dy="1707" grid="1" gridSize="10" guides="1" tooltips="1" connect="1" arrows="1" fold="1" page="1" pageScale="1" pageWidth="827" pageHeight="1169" math="0" shadow="0">
      <root>
        <mxCell id="0" />
        <mxCell id="1" parent="0" />
        <mxCell id="s1mG0tJND3tc6fStOFF7-114" value="" style="rounded=0;whiteSpace=wrap;html=1;fillColor=none;movable=1;resizable=1;rotatable=1;deletable=1;editable=1;locked=0;connectable=1;strokeColor=none;" parent="1" vertex="1">
          <mxGeometry x="859" y="-70" width="1000" height="200" as="geometry" />
        </mxCell>
        <mxCell id="s1mG0tJND3tc6fStOFF7-19" value="VK Cloud Infrastructure" style="rounded=1;whiteSpace=wrap;html=1;strokeColor=#7C8A9A;strokeWidth=1;fontColor=#212121;fillColor=none;dashed=1;fontFamily=VK Sans Display;verticalAlign=top;spacing=10;fontStyle=1;arcSize=12;absoluteArcSize=1;" parent="1" vertex="1">
          <mxGeometry x="1600" y="-50" width="240" height="159" as="geometry" />
        </mxCell>
        <mxCell id="s1mG0tJND3tc6fStOFF7-2" value="Customer Infrastructure" style="rounded=1;whiteSpace=wrap;html=1;strokeColor=#7C8A9A;strokeWidth=1;fontColor=#212121;fillColor=none;dashed=1;fontFamily=VK Sans Display;verticalAlign=top;spacing=10;fontStyle=1;arcSize=12;absoluteArcSize=1;" parent="1" vertex="1">
          <mxGeometry x="880" y="-50" width="240" height="159" as="geometry" />
        </mxCell>
        <mxCell id="s1mG0tJND3tc6fStOFF7-9" value="Provider Infrastructure" style="rounded=1;whiteSpace=wrap;html=1;strokeColor=#7C8A9A;strokeWidth=1;fontColor=#212121;fillColor=none;dashed=1;fontFamily=VK Sans Display;verticalAlign=top;spacing=10;fontStyle=1;arcSize=12;absoluteArcSize=1;" parent="1" vertex="1">
          <mxGeometry x="1171" y="-50" width="157" height="159" as="geometry" />
        </mxCell>
        <mxCell id="s1mG0tJND3tc6fStOFF7-16" value="VK &lt;span lang=&quot;en&quot; class=&quot;HwtZe&quot;&gt;&lt;span class=&quot;jCAhz ChMk0b&quot;&gt;&lt;span class=&quot;ryNqvb&quot;&gt;Network Control Center&lt;/span&gt;&lt;/span&gt;&lt;/span&gt;" style="rounded=1;whiteSpace=wrap;html=1;strokeColor=#7C8A9A;strokeWidth=1;fontColor=#212121;fillColor=none;dashed=1;fontFamily=VK Sans Display;verticalAlign=top;spacing=10;fontStyle=1;arcSize=12;absoluteArcSize=1;" parent="1" vertex="1">
          <mxGeometry x="1382" y="-50" width="157" height="159.5" as="geometry" />
        </mxCell>
        <mxCell id="s1mG0tJND3tc6fStOFF7-76" value="" style="endArrow=oval;html=1;fontFamily=VK Sans Display;fontColor=#212121;rounded=0;strokeColor=#7C8A9A;endFill=1;strokeWidth=2;arcSize=8;startArrow=oval;startFill=1;endSize=2;startSize=2;" parent="1" edge="1">
          <mxGeometry width="50" height="50" relative="1" as="geometry">
            <mxPoint x="950" y="40" as="sourcePoint" />
            <mxPoint x="1000" y="40" as="targetPoint" />
          </mxGeometry>
        </mxCell>
        <mxCell id="s1mG0tJND3tc6fStOFF7-123" value="" style="endArrow=oval;html=1;fontFamily=VK Sans Display;fontColor=#212121;rounded=0;strokeColor=#7C8A9A;endFill=1;strokeWidth=2;arcSize=8;startArrow=oval;startFill=1;endSize=2;startSize=2;" parent="1" edge="1">
          <mxGeometry width="50" height="50" relative="1" as="geometry">
            <mxPoint x="1020" y="39.83" as="sourcePoint" />
            <mxPoint x="1070" y="39.83" as="targetPoint" />
          </mxGeometry>
        </mxCell>
        <mxCell id="s1mG0tJND3tc6fStOFF7-125" value="" style="endArrow=oval;html=1;fontFamily=VK Sans Display;fontColor=#212121;rounded=0;strokeColor=#7C8A9A;endFill=1;strokeWidth=2;arcSize=8;startArrow=oval;startFill=1;endSize=2;startSize=2;exitX=1;exitY=0.5;exitDx=0;exitDy=0;" parent="1" source="s1mG0tJND3tc6fStOFF7-7" edge="1">
          <mxGeometry width="50" height="50" relative="1" as="geometry">
            <mxPoint x="1103" y="40.33" as="sourcePoint" />
            <mxPoint x="1134" y="40" as="targetPoint" />
          </mxGeometry>
        </mxCell>
        <mxCell id="s1mG0tJND3tc6fStOFF7-126" value="" style="endArrow=oval;html=1;fontFamily=VK Sans Display;fontColor=#212121;rounded=0;strokeColor=#7C8A9A;endFill=1;strokeWidth=2;arcSize=8;startArrow=oval;startFill=1;endSize=2;startSize=2;entryX=0;entryY=0.5;entryDx=0;entryDy=0;" parent="1" target="s1mG0tJND3tc6fStOFF7-12" edge="1">
          <mxGeometry width="50" height="50" relative="1" as="geometry">
            <mxPoint x="1156" y="39.83" as="sourcePoint" />
            <mxPoint x="1206" y="39.83" as="targetPoint" />
          </mxGeometry>
        </mxCell>
        <mxCell id="s1mG0tJND3tc6fStOFF7-127" value="" style="endArrow=oval;html=1;fontFamily=VK Sans Display;fontColor=#212121;rounded=0;strokeColor=#7C8A9A;endFill=1;strokeWidth=2;arcSize=8;startArrow=oval;startFill=1;endSize=2;startSize=2;entryX=0;entryY=0.5;entryDx=0;entryDy=0;exitX=1;exitY=0.5;exitDx=0;exitDy=0;" parent="1" source="s1mG0tJND3tc6fStOFF7-12" target="s1mG0tJND3tc6fStOFF7-23" edge="1">
          <mxGeometry width="50" height="50" relative="1" as="geometry">
            <mxPoint x="1254" y="40.33" as="sourcePoint" />
            <mxPoint x="1328" y="40.5" as="targetPoint" />
          </mxGeometry>
        </mxCell>
        <mxCell id="s1mG0tJND3tc6fStOFF7-128" value="" style="endArrow=oval;html=1;fontFamily=VK Sans Display;fontColor=#212121;rounded=0;strokeColor=#7C8A9A;endFill=1;strokeWidth=2;arcSize=8;startArrow=oval;startFill=1;endSize=2;startSize=2;entryX=0;entryY=0.5;entryDx=0;entryDy=0;" parent="1" target="s1mG0tJND3tc6fStOFF7-17" edge="1">
          <mxGeometry width="50" height="50" relative="1" as="geometry">
            <mxPoint x="1365" y="40.16" as="sourcePoint" />
            <mxPoint x="1430" y="40" as="targetPoint" />
          </mxGeometry>
        </mxCell>
        <mxCell id="s1mG0tJND3tc6fStOFF7-129" value="" style="endArrow=oval;html=1;fontFamily=VK Sans Display;fontColor=#212121;rounded=0;strokeColor=#7C8A9A;endFill=1;strokeWidth=2;arcSize=8;startArrow=oval;startFill=1;endSize=2;startSize=2;exitX=1;exitY=0.5;exitDx=0;exitDy=0;" parent="1" edge="1">
          <mxGeometry width="50" height="50" relative="1" as="geometry">
            <mxPoint x="1483.5" y="39.83" as="sourcePoint" />
            <mxPoint x="1560" y="40" as="targetPoint" />
          </mxGeometry>
        </mxCell>
        <mxCell id="s1mG0tJND3tc6fStOFF7-130" value="" style="endArrow=oval;html=1;fontFamily=VK Sans Display;fontColor=#212121;rounded=0;strokeColor=#7C8A9A;endFill=1;strokeWidth=2;arcSize=8;startArrow=oval;startFill=1;endSize=2;startSize=2;exitX=1;exitY=0.5;exitDx=0;exitDy=0;entryX=0;entryY=0.5;entryDx=0;entryDy=0;" parent="1" target="s1mG0tJND3tc6fStOFF7-20" edge="1">
          <mxGeometry width="50" height="50" relative="1" as="geometry">
            <mxPoint x="1581" y="40.33" as="sourcePoint" />
            <mxPoint x="1610" y="40" as="targetPoint" />
          </mxGeometry>
        </mxCell>
        <mxCell id="s1mG0tJND3tc6fStOFF7-132" value="" style="endArrow=oval;html=1;fontFamily=VK Sans Display;fontColor=#212121;rounded=0;strokeColor=#7C8A9A;endFill=1;strokeWidth=2;arcSize=8;startArrow=oval;startFill=1;endSize=2;startSize=2;exitX=1;exitY=0.5;exitDx=0;exitDy=0;" parent="1" edge="1">
          <mxGeometry width="50" height="50" relative="1" as="geometry">
            <mxPoint x="1649" y="40.33" as="sourcePoint" />
            <mxPoint x="1710" y="40" as="targetPoint" />
          </mxGeometry>
        </mxCell>
        <mxCell id="s1mG0tJND3tc6fStOFF7-133" value="" style="endArrow=oval;html=1;fontFamily=VK Sans Display;fontColor=#212121;rounded=0;strokeColor=#7C8A9A;endFill=1;strokeWidth=2;arcSize=8;startArrow=oval;startFill=1;endSize=2;startSize=2;exitX=1;exitY=0.5;exitDx=0;exitDy=0;" parent="1" edge="1">
          <mxGeometry width="50" height="50" relative="1" as="geometry">
            <mxPoint x="1734" y="41.16" as="sourcePoint" />
            <mxPoint x="1795" y="40.83" as="targetPoint" />
          </mxGeometry>
        </mxCell>
        <mxCell id="s1mG0tJND3tc6fStOFF7-8" value="On-premises infrastructure" style="shape=image;verticalLabelPosition=bottom;labelBackgroundColor=default;verticalAlign=top;aspect=fixed;imageAspect=0;editableCssRules=.*;image=data:image/svg+xml,PHN2ZyB4bWxucz0iaHR0cDovL3d3dy53My5vcmcvMjAwMC9zdmciIGZpbGw9Im5vbmUiIHZpZXdCb3g9IjAgMCA0OC4zMzMzMDE1NDQxODk0NSAyOS42NjY1OTkyNzM2ODE2NCIgaGVpZ2h0PSIyOS42NjY1OTkyNzM2ODE2NCIgd2lkdGg9IjQ4LjMzMzMwMTU0NDE4OTQ1Ij4mI3hhOzxwYXRoIGZpbGw9IiMwMDc3RkYiIGQ9Ik0wIDEwLjMzMzNDMCA3LjA2NjM2IDAgNC40MzI4NyAwLjYzNTc5NiAzLjE4NTA2QzEuMTk1MDYgMi4wODc0NCAyLjA4NzQ0IDEuMTk1MDYgMy4xODUwNiAwLjYzNTc5NUMzLjMxMDkyIDAuNTcxNjYyIDMuNDIwMzcgMC41MTM5OTggMy41MTg3NyAwLjQ2MjE1QzMuNzQ5NCAwLjM0MDYzNSAzLjkxOTM5IDAuMjUxMDcxIDQuMDk4MDcgMC4xODUwNTZDNC41OTg5OCAwIDUuMTY4MjUgMCA3LjMzMzMzIDBIMTJDMTQuMTY1MSAwIDE0LjczNDQgMCAxNS4yMzUzIDAuMTg1MDU2QzE1LjQxMzkgMC4yNTEwNzEgMTUuNTgzOSAwLjM0MDYzNSAxNS44MTQ2IDAuNDYyMTVDMTUuOTEyOSAwLjUxMzk4OCAxNi4wMjI0IDAuNTcxNjc3IDE2LjE0ODMgMC42MzU3OTVDMTcuMjQ1OSAxLjE5NTA2IDE4LjEzODMgMi4wODc0NCAxOC42OTc1IDMuMTg1MDZDMTguODczMiAzLjUyOTc2IDE5LjAwMDMgMy45ODAyIDE5LjA5MjMgNC41MjA1MkMxOS4wOTQyIDQuNTE5OCAxOS4wOTYxIDQuNTE5MDggMTkuMDk4MSA0LjUxODM3QzE5LjU5OSA0LjMzMzMxIDIwLjE2ODMgNC4zMzMzMSAyMi4zMzMzIDQuMzMzMzFIMjdDMjguMTA0NSA0LjMzMzMxIDI4Ljc5MzYgNC4zMzMzMSAyOS4yNzAzIDQuMzU3ODhDMjkuMzU5NSAzLjg4OTM0IDI5LjQ3ODEgMy40OTQ1NyAyOS42MzU4IDMuMTg1MDZDMzAuMTk1MSAyLjA4NzQ0IDMxLjA4NzQgMS4xOTUwNiAzMi4xODUxIDAuNjM1Nzk1QzMyLjMxMDkgMC41NzE2NjIgMzIuNDIwNCAwLjUxMzk5OCAzMi41MTg4IDAuNDYyMTVDMzIuNzQ5NCAwLjM0MDYzNSAzMi45MTk0IDAuMjUxMDcxIDMzLjA5ODEgMC4xODUwNTZDMzMuNTk5IDAgMzQuMTY4MyAwIDM2LjMzMzMgMEg0MUM0My4xNjUxIDAgNDMuNzM0NCAwIDQ0LjIzNTMgMC4xODUwNTZDNDQuNDEzOSAwLjI1MTA3MSA0NC41ODM5IDAuMzQwNjM1IDQ0LjgxNDYgMC40NjIxNUM0NC45MTI5IDAuNTEzOTg4IDQ1LjAyMjQgMC41NzE2NzcgNDUuMTQ4MyAwLjYzNTc5NUM0Ni4yNDU5IDEuMTk1MDYgNDcuMTM4MyAyLjA4NzQ0IDQ3LjY5NzUgMy4xODUwNkM0OC4zMzMzIDQuNDMyODcgNDguMzMzMyA3LjA2NjM2IDQ4LjMzMzMgMTAuMzMzM1YxNUM0OC4zMzMzIDE4LjI2NyA0OC4zMzMzIDIwLjkwMDUgNDcuNjk3NSAyMi4xNDgzQzQ3LjEzODMgMjMuMjQ1OSA0Ni4yNDU5IDI0LjEzODMgNDUuMTQ4MyAyNC42OTc1QzQ1LjAyMjcgMjQuNzYxNSA0NC45MTM1IDI0LjgxOSA0NC44MTUzIDI0Ljg3MDhDNDQuNTg0NyAyNC45OTIzIDQ0LjQxMzkgMjUuMDgyMyA0NC4yMzUzIDI1LjE0ODNDNDMuNzM0NCAyNS4zMzMzIDQzLjE2NTEgMjUuMzMzMyA0MSAyNS4zMzMzSDM2LjMzMzNDMzUuMjI4OSAyNS4zMzMzIDM0LjUzOTcgMjUuMzMzMyAzNC4wNjMgMjUuMzA4OEMzMy45NzM4IDI1Ljc3NzMgMzMuODU1MiAyNi4xNzIxIDMzLjY5NzUgMjYuNDgxNkMzMy4xMzgzIDI3LjU3OTIgMzIuMjQ1OSAyOC40NzE2IDMxLjE0ODMgMjkuMDMwOEMzMS4wMjI2IDI5LjA5NDkgMzAuOTEzMiAyOS4xNTI1IDMwLjgxNDkgMjkuMjA0M0MzMC41ODQzIDI5LjMyNTggMzAuNDEzOSAyOS40MTU2IDMwLjIzNTMgMjkuNDgxNkMyOS43MzQ0IDI5LjY2NjYgMjkuMTY1MSAyOS42NjY2IDI3IDI5LjY2NjZIMjIuMzMzM0MyMC4xNjgzIDI5LjY2NjYgMTkuNTk5IDI5LjY2NjYgMTkuMDk4MSAyOS40ODE2QzE4LjkxOTQgMjkuNDE1NiAxOC43NDk0IDI5LjMyNiAxOC41MTg4IDI5LjIwNDVDMTguNDIwNCAyOS4xNTI3IDE4LjMxMDkgMjkuMDk1IDE4LjE4NTEgMjkuMDMwOEMxNy4wODc0IDI4LjQ3MTYgMTYuMTk1MSAyNy41NzkyIDE1LjYzNTggMjYuNDgxNkMxNS40NjAyIDI2LjEzNjkgMTUuMzMzIDI1LjY4NjUgMTUuMjQxIDI1LjE0NjFDMTUuMjM5MSAyNS4xNDY4IDE1LjIzNzIgMjUuMTQ3NiAxNS4yMzUzIDI1LjE0ODNDMTQuNzM0NCAyNS4zMzMzIDE0LjE2NTEgMjUuMzMzMyAxMiAyNS4zMzMzSDcuMzMzMzNDNS4xNjgyNSAyNS4zMzMzIDQuNTk4OTggMjUuMzMzMyA0LjA5ODA3IDI1LjE0ODNDMy45MTkzOSAyNS4wODIzIDMuNzQ5NDEgMjQuOTkyNyAzLjUxODc4IDI0Ljg3MTJDMy40MjA0MSAyNC44MTk0IDMuMzEwODggMjQuNzYxNiAzLjE4NTA2IDI0LjY5NzVDMi4wODc0NCAyNC4xMzgzIDEuMTk1MDYgMjMuMjQ1OSAwLjYzNTc5NiAyMi4xNDgzQzAgMjAuOTAwNSAwIDE4LjI2NyAwIDE1VjEwLjMzMzNaTTE1LjAzNyAyMi44MDM0QzE1LjAxOCAyMi4yNzMxIDE1LjAwODggMjEuNzA2MSAxNS4wMDQzIDIxLjEwODNDMTQuODk4OCAyMS4xNDYxIDE0Ljc4NTEgMjEuMTY2NyAxNC42NjY3IDIxLjE2NjdINC42NjY2NkM0LjExNDM3IDIxLjE2NjcgMy42NjY2NiAyMC43MTkgMy42NjY2NiAyMC4xNjY3QzMuNjY2NjYgMTkuNjE0NCA0LjExNDM3IDE5LjE2NjcgNC42NjY2NiAxOS4xNjY3SDE0LjY2NjdDMTQuNzgzNSAxOS4xNjY3IDE0Ljg5NTcgMTkuMTg2NyAxNSAxOS4yMjM2VjE3LjEwOThDMTQuODk1NyAxNy4xNDY2IDE0Ljc4MzUgMTcuMTY2NyAxNC42NjY3IDE3LjE2NjdINC42NjY2NkM0LjExNDM3IDE3LjE2NjcgMy42NjY2NiAxNi43MTkgMy42NjY2NiAxNi4xNjY3QzMuNjY2NjYgMTUuNjE0NCA0LjExNDM3IDE1LjE2NjcgNC42NjY2NiAxNS4xNjY3SDE0LjY2NjdDMTQuNzgzNSAxNS4xNjY3IDE0Ljg5NTcgMTUuMTg2NyAxNSAxNS4yMjM2VjE0LjY2NjZDMTUgMTEuMzk5NyAxNSA4Ljc2NjE5IDE1LjYzNTggNy41MTgzN0MxNS45OTE4IDYuODE5NzQgMTYuNDgyNyA2LjIwNDI2IDE3LjA3NTYgNS43MDQ4OUMxNy4wNzQ5IDUuNjk2NTMgMTcuMDc0MyA1LjY4ODI4IDE3LjA3MzYgNS42ODAxNEMxNy4wMDUyIDQuODQyNyAxNi44ODMgNC40NDIzIDE2Ljc0ODUgNC4xNzgxNkMxNi4zOTg5IDMuNDkyMTUgMTUuODQxMiAyLjkzNDQxIDE1LjE1NTIgMi41ODQ4N0MxNC44OTEgMi40NTAyOSAxNC40OTA2IDIuMzI4MTMgMTMuNjUzMiAyLjI1OTcxQzEzLjM1MzQgMi4yMzUyMSAxMy4yNjM5IDIuMjE5MDIgMTMuMjA0NyAyLjIwODMyQzEzLjA5MzYgMi4xODgyMiAxMy4wODk2IDIuMTg3NSAxMiAyLjE4NzVINy4zMzMzM0M2LjI0Mzc3IDIuMTg3NSA2LjIzOTc2IDIuMTg4MjIgNi4xMjg2MiAyLjIwODMyQzYuMDY5NDYgMi4yMTkwMiA1Ljk3OTk0IDIuMjM1MjEgNS42ODAxNCAyLjI1OTcxQzQuODQyNyAyLjMyODEzIDQuNDQyMyAyLjQ1MDI5IDQuMTc4MTYgMi41ODQ4N0MzLjQ5MjE1IDIuOTM0NDEgMi45MzQ0MSAzLjQ5MjE1IDIuNTg0ODcgNC4xNzgxNkMyLjQ1MDI5IDQuNDQyMyAyLjMyODEzIDQuODQyNyAyLjI1OTcxIDUuNjgwMTRDMi4xODkyIDYuNTQzMTIgMi4xODc1IDguNjYzNzUgMi4xODc1IDEwLjMzMzNWMTVDMi4xODc1IDE2LjY2OTYgMi4xODkyIDE4Ljc5MDIgMi4yNTk3MSAxOS42NTMyQzIuMzI4MTMgMjAuNDkwNiAyLjQ1MDI5IDIwLjg5MSAyLjU4NDg3IDIxLjE1NTJDMi45MzQ0MSAyMS44NDEyIDMuNDkyMTUgMjIuMzk4OSA0LjE3ODE2IDIyLjc0ODVDNC40NDIzIDIyLjg4MyA0Ljg0MjcgMjMuMDA1MiA1LjY4MDE0IDIzLjA3MzZDNS45Nzk5NCAyMy4wOTgxIDYuMDY5NDYgMjMuMTE0MyA2LjEyODYyIDIzLjEyNUM2LjIzOTc2IDIzLjE0NTEgNi4yNDM3NiAyMy4xNDU4IDcuMzMzMzMgMjMuMTQ1OEgxMkMxMy4wODk2IDIzLjE0NTggMTMuMDkzNiAyMy4xNDUxIDEzLjIwNDcgMjMuMTI1QzEzLjI2MzkgMjMuMTE0MyAxMy4zNTM0IDIzLjA5ODEgMTMuNjUzMiAyMy4wNzM2QzE0LjM3NDkgMjMuMDE0NyAxNC43NzIgMjIuOTE1OCAxNS4wMzcgMjIuODAzNFpNMzQuMjg3MyAyMy4wMzRDMzQuNDA2NSAyMy4wNDg2IDM0LjUzNjkgMjMuMDYxOSAzNC42ODAxIDIzLjA3MzZDMzQuOTc5OSAyMy4wOTgxIDM1LjA2OTUgMjMuMTE0MyAzNS4xMjg2IDIzLjEyNUMzNS4yMzk4IDIzLjE0NTEgMzUuMjQzOCAyMy4xNDU4IDM2LjMzMzMgMjMuMTQ1OEg0MUM0Mi4wODk2IDIzLjE0NTggNDIuMDkzNiAyMy4xNDUxIDQyLjIwNDcgMjMuMTI1QzQyLjI2MzkgMjMuMTE0MyA0Mi4zNTM0IDIzLjA5ODEgNDIuNjUzMiAyMy4wNzM2QzQzLjQ5MDYgMjMuMDA1MiA0My44OTEgMjIuODgzIDQ0LjE1NTIgMjIuNzQ4NUM0NC44NDEyIDIyLjM5ODkgNDUuMzk4OSAyMS44NDEyIDQ1Ljc0ODUgMjEuMTU1MkM0NS44ODMgMjAuODkxIDQ2LjAwNTIgMjAuNDkwNiA0Ni4wNzM2IDE5LjY1MzJDNDYuMTQ0MSAxOC43OTAyIDQ2LjE0NTggMTYuNjY5NiA0Ni4xNDU4IDE1VjEwLjMzMzNDNDYuMTQ1OCA4LjY2Mzc1IDQ2LjE0NDEgNi41NDMxMiA0Ni4wNzM2IDUuNjgwMTRDNDYuMDA1MiA0Ljg0MjcgNDUuODgzIDQuNDQyMyA0NS43NDg1IDQuMTc4MTZDNDUuMzk4OSAzLjQ5MjE1IDQ0Ljg0MTIgMi45MzQ0MSA0NC4xNTUyIDIuNTg0ODdDNDMuODkxIDIuNDUwMjkgNDMuNDkwNiAyLjMyODEzIDQyLjY1MzIgMi4yNTk3MUM0Mi4zNTM0IDIuMjM1MjEgNDIuMjYzOSAyLjIxOTAyIDQyLjIwNDcgMi4yMDgzMkM0Mi4wOTM2IDIuMTg4MjIgNDIuMDg5NiAyLjE4NzUgNDEgMi4xODc1SDM2LjMzMzNDMzUuMjQzOCAyLjE4NzUgMzUuMjM5OCAyLjE4ODIyIDM1LjEyODYgMi4yMDgzMkMzNS4wNjk1IDIuMjE5MDIgMzQuOTc5OSAyLjIzNTIxIDM0LjY4MDEgMi4yNTk3MUMzMy44NDI3IDIuMzI4MTMgMzMuNDQyMyAyLjQ1MDI5IDMzLjE3ODIgMi41ODQ4N0MzMi40OTIyIDIuOTM0NDEgMzEuOTM0NCAzLjQ5MjE1IDMxLjU4NDkgNC4xNzgxNkMzMS40ODg1IDQuMzY3MzIgMzEuMzk4NSA0LjYyNjM3IDMxLjMzIDUuMDY1NzlDMzIuMzQ0NCA1LjYyODU3IDMzLjE2OTUgNi40ODE5OCAzMy42OTc1IDcuNTE4MzdDMzQuMzMzMyA4Ljc2NjE5IDM0LjMzMzMgMTEuMzk5NyAzNC4zMzMzIDE0LjY2NjZWMTUuMTY2N0g0My42NjY3QzQ0LjIxODkgMTUuMTY2NyA0NC42NjY3IDE1LjYxNDQgNDQuNjY2NyAxNi4xNjY3QzQ0LjY2NjcgMTYuNzE5IDQ0LjIxODkgMTcuMTY2NyA0My42NjY3IDE3LjE2NjdIMzQuMzMzM1YxOS4xNjY3SDQzLjY2NjdDNDQuMjE4OSAxOS4xNjY3IDQ0LjY2NjcgMTkuNjE0NCA0NC42NjY3IDIwLjE2NjdDNDQuNjY2NyAyMC43MTkgNDQuMjE4OSAyMS4xNjY3IDQzLjY2NjcgMjEuMTY2N0gzNC4zMjg2QzM0LjMyMzMgMjEuODMwMyAzNC4zMTE4IDIyLjQ1NTQgMzQuMjg3MyAyMy4wMzRaTTMuNjY2NjYgNS4xNjY2OUMzLjY2NjY2IDQuNjE0NCA0LjExNDM3IDQuMTY2NjkgNC42NjY2NiA0LjE2NjY5SDE0LjY2NjdDMTUuMjE4OSA0LjE2NjY5IDE1LjY2NjcgNC42MTQ0IDE1LjY2NjcgNS4xNjY2OUMxNS42NjY3IDUuNzE4OTcgMTUuMjE4OSA2LjE2NjY5IDE0LjY2NjcgNi4xNjY2OUg0LjY2NjY2QzQuMTE0MzcgNi4xNjY2OSAzLjY2NjY2IDUuNzE4OTcgMy42NjY2NiA1LjE2NjY5Wk0zMi42NjY3IDUuMTY2NjlDMzIuNjY2NyA0LjYxNDQgMzMuMTE0NCA0LjE2NjY5IDMzLjY2NjcgNC4xNjY2OUg0My42NjY3QzQ0LjIxODkgNC4xNjY2OSA0NC42NjY3IDQuNjE0NCA0NC42NjY3IDUuMTY2NjlDNDQuNjY2NyA1LjcxODk3IDQ0LjIxODkgNi4xNjY2OSA0My42NjY3IDYuMTY2NjlIMzMuNjY2N0MzMy4xMTQ0IDYuMTY2NjkgMzIuNjY2NyA1LjcxODk3IDMyLjY2NjcgNS4xNjY2OVpNMjIuMzMzMyA2LjUyMDgxSDI3QzI4LjA4OTYgNi41MjA4MSAyOC4wOTM2IDYuNTIxNTQgMjguMjA0NyA2LjU0MTY0QzI4LjI2MzkgNi41NTIzNCAyOC4zNTM0IDYuNTY4NTMgMjguNjUzMiA2LjU5MzAyQzI5LjQ5MDYgNi42NjE0NCAyOS44OTEgNi43ODM2IDMwLjE1NTIgNi45MTgxOEMzMC44NDEyIDcuMjY3NzIgMzEuMzk4OSA3LjgyNTQ2IDMxLjc0ODUgOC41MTE0N0MzMS44ODMgOC43NzU2MSAzMi4wMDUyIDkuMTc2MDEgMzIuMDczNiAxMC4wMTM1QzMyLjE0NDEgMTAuODc2NCAzMi4xNDU4IDEyLjk5NzEgMzIuMTQ1OCAxNC42NjY2VjE5LjMzMzNDMzIuMTQ1OCAyMS4wMDI5IDMyLjE0NDEgMjMuMTIzNSAzMi4wNzM2IDIzLjk4NjVDMzIuMDA1MiAyNC44MjM5IDMxLjg4MyAyNS4yMjQzIDMxLjc0ODUgMjUuNDg4NUMzMS4zOTg5IDI2LjE3NDUgMzAuODQxMiAyNi43MzIyIDMwLjE1NTIgMjcuMDgxOEMyOS44OTEgMjcuMjE2NCAyOS40OTA2IDI3LjMzODUgMjguNjUzMiAyNy40MDY5QzI4LjM1MzQgMjcuNDMxNCAyOC4yNjM5IDI3LjQ0NzYgMjguMjA0NyAyNy40NTgzQzI4LjA5MzYgMjcuNDc4NCAyOC4wODk2IDI3LjQ3OTEgMjcgMjcuNDc5MUgyMi4zMzMzQzIxLjI0MzggMjcuNDc5MSAyMS4yMzk4IDI3LjQ3ODQgMjEuMTI4NiAyNy40NTgzQzIxLjA2OTUgMjcuNDQ3NiAyMC45Nzk5IDI3LjQzMTQgMjAuNjgwMSAyNy40MDY5QzE5Ljg0MjcgMjcuMzM4NSAxOS40NDIzIDI3LjIxNjQgMTkuMTc4MiAyNy4wODE4QzE4LjQ5MjIgMjYuNzMyMiAxNy45MzQ0IDI2LjE3NDUgMTcuNTg0OSAyNS40ODg1QzE3LjQ1MDMgMjUuMjI0MyAxNy4zMjgxIDI0LjgyMzkgMTcuMjU5NyAyMy45ODY1QzE3LjE4OTIgMjMuMTIzNSAxNy4xODc1IDIxLjAwMjkgMTcuMTg3NSAxOS4zMzMzVjE0LjY2NjZDMTcuMTg3NSAxMi45OTcxIDE3LjE4OTIgMTAuODc2NCAxNy4yNTk3IDEwLjAxMzVDMTcuMzI4MSA5LjE3NjAxIDE3LjQ1MDMgOC43NzU2MSAxNy41ODQ5IDguNTExNDdDMTcuOTM0NCA3LjgyNTQ2IDE4LjQ5MjIgNy4yNjc3MiAxOS4xNzgyIDYuOTE4MThDMTkuNDQyMyA2Ljc4MzYgMTkuODQyNyA2LjY2MTQ0IDIwLjY4MDEgNi41OTMwMkMyMC45Nzk5IDYuNTY4NTMgMjEuMDY5NSA2LjU1MjM0IDIxLjEyODYgNi41NDE2NEMyMS4yMzk4IDYuNTIxNTQgMjEuMjQzOCA2LjUyMDgxIDIyLjMzMzMgNi41MjA4MVpNMTguNjY2NyA5LjVDMTguNjY2NyA4Ljk0NzcyIDE5LjExNDQgOC41IDE5LjY2NjcgOC41SDI5LjY2NjdDMzAuMjE4OSA4LjUgMzAuNjY2NyA4Ljk0NzcyIDMwLjY2NjcgOS41QzMwLjY2NjcgMTAuMDUyMyAzMC4yMTg5IDEwLjUgMjkuNjY2NyAxMC41SDE5LjY2NjdDMTkuMTE0NCAxMC41IDE4LjY2NjcgMTAuMDUyMyAxOC42NjY3IDkuNVpNMTkuNjY2NyAxOS41QzE5LjExNDQgMTkuNSAxOC42NjY3IDE5Ljk0NzcgMTguNjY2NyAyMC41QzE4LjY2NjcgMjEuMDUyMyAxOS4xMTQ0IDIxLjUgMTkuNjY2NyAyMS41SDI5LjY2NjdDMzAuMjE4OSAyMS41IDMwLjY2NjcgMjEuMDUyMyAzMC42NjY3IDIwLjVDMzAuNjY2NyAxOS45NDc3IDMwLjIxODkgMTkuNSAyOS42NjY3IDE5LjVIMTkuNjY2N1pNMTguNjY2NyAyNC41QzE4LjY2NjcgMjMuOTQ3NyAxOS4xMTQ0IDIzLjUgMTkuNjY2NyAyMy41SDI5LjY2NjdDMzAuMjE4OSAyMy41IDMwLjY2NjcgMjMuOTQ3NyAzMC42NjY3IDI0LjVDMzAuNjY2NyAyNS4wNTIzIDMwLjIxODkgMjUuNSAyOS42NjY3IDI1LjVIMTkuNjY2N0MxOS4xMTQ0IDI1LjUgMTguNjY2NyAyNS4wNTIzIDE4LjY2NjcgMjQuNVoiIGNsaXAtcnVsZT0iZXZlbm9kZCIgZmlsbC1ydWxlPSJldmVub2RkIi8+JiN4YTs8L3N2Zz4=;fontFamily=VK Sans Display;whiteSpace=wrap;" parent="1" vertex="1">
          <mxGeometry x="902" y="25" width="48" height="30" as="geometry" />
        </mxCell>
        <mxCell id="s1mG0tJND3tc6fStOFF7-6" value="customer-net" style="shape=image;verticalLabelPosition=bottom;labelBackgroundColor=default;verticalAlign=top;aspect=fixed;imageAspect=0;editableCssRules=.*;image=data:image/svg+xml,PHN2ZyB4bWxucz0iaHR0cDovL3d3dy53My5vcmcvMjAwMC9zdmciIGZpbGw9Im5vbmUiIHZpZXdCb3g9IjIuOTE2NjYwMDcwNDE5MzExNSAyLjkxNjY2MDA3MDQxOTMxMTUgMjIuMTY2NjM5MzI4MDAyOTMgMjIuMTY2NjM5MzI4MDAyOTMiIGhlaWdodD0iMjIuMTY2NjM5MzI4MDAyOTMiIHdpZHRoPSIyMi4xNjY2MzkzMjgwMDI5MyI+JiN4YTs8cGF0aCBmaWxsPSIjMDA3N0ZGIiBkPSJNMjUuMDgzMyA3LjA3MjkxQzI1LjA4MzMgOS4zNjgzNCAyMy4yMjI1IDExLjIyOTIgMjAuOTI3MSAxMS4yMjkyQzIwLjM3MDkgMTEuMjI5MiAxOS44NDAyIDExLjExOTkgMTkuMzU1NCAxMC45MjE3QzE5LjA1MTcgMTAuNzk3NiAxOC42OTM0IDEwLjg0OTEgMTguNDc0NyAxMS4wOTM3TDE2LjI4MzEgMTMuNTQ0NkMxNi4wNDggMTMuODA3NSAxNi4wNDggMTQuMjA1IDE2LjI4MzEgMTQuNDY4TDE4LjQ2NiAxNi45MDk4QzE4LjY4NSAxNy4xNTQ5IDE5LjA0NDEgMTcuMjA2MiAxOS4zNDgyIDE3LjA4MTJDMTkuODM1IDE2Ljg4MTIgMjAuMzY4MSAxNi43NzA4IDIwLjkyNzEgMTYuNzcwOEMyMy4yMjI1IDE2Ljc3MDggMjUuMDgzMyAxOC42MzE2IDI1LjA4MzMgMjAuOTI3MUMyNS4wODMzIDIzLjIyMjUgMjMuMjIyNSAyNS4wODMzIDIwLjkyNzEgMjUuMDgzM0MxOC42MzE2IDI1LjA4MzMgMTYuNzcwOCAyMy4yMjI1IDE2Ljc3MDggMjAuOTI3MUMxNi43NzA4IDIwLjMyNzYgMTYuODk3OCAxOS43NTc3IDE3LjEyNjIgMTkuMjQyOUMxNy4yNDk1IDE4Ljk2NSAxNy4yMjM1IDE4LjYzNSAxNy4wMjA2IDE4LjQwODZMMTQuMjA2NSAxNS4yNjk0QzE0LjA3NTEgMTUuMTIyOCAxMy44ODc1IDE1LjAzOTEgMTMuNjkwNyAxNS4wMzkxSDExLjYzNTJDMTEuMzE5MSAxNS4wMzkxIDExLjA0ODggMTUuMjU1NyAxMC45MzA5IDE1LjU0OUMxMC4zMTY3IDE3LjA3NzMgOC44MjA4MyAxOC4xNTYyIDcuMDcyOTEgMTguMTU2MkM0Ljc3NzQ3IDE4LjE1NjIgMi45MTY2NiAxNi4yOTU0IDIuOTE2NjYgMTRDMi45MTY2NiAxMS43MDQ2IDQuNzc3NDcgOS44NDM3NCA3LjA3MjkxIDkuODQzNzRDOC44MjA4MyA5Ljg0Mzc0IDEwLjMxNjcgMTAuOTIyNyAxMC45MzA5IDEyLjQ1MUMxMS4wNDg4IDEyLjc0NDMgMTEuMzE5MSAxMi45NjA5IDExLjYzNTIgMTIuOTYwOUgxMy42OTE0QzEzLjg4NzggMTIuOTYwOSAxNC4wNzUgMTIuODc3NSAxNC4yMDY0IDEyLjczMTVMMTcuMDIzMiA5LjYwMDE1QzE3LjIyNzIgOS4zNzMzOSAxNy4yNTMzIDkuMDQyMDkgMTcuMTI5MSA4Ljc2MzUxQzE2Ljg5ODggOC4yNDcwMiAxNi43NzA4IDcuNjc0OTEgMTYuNzcwOCA3LjA3MjkxQzE2Ljc3MDggNC43Nzc0NyAxOC42MzE2IDIuOTE2NjYgMjAuOTI3MSAyLjkxNjY2QzIzLjIyMjUgMi45MTY2NiAyNS4wODMzIDQuNzc3NDcgMjUuMDgzMyA3LjA3MjkxWk0yMy4wMDUyIDcuMDcyOTFDMjMuMDA1MiA4LjIyMDYyIDIyLjA3NDggOS4xNTEwMyAyMC45MjcxIDkuMTUxMDNDMTkuNzc5NCA5LjE1MTAzIDE4Ljg0ODkgOC4yMjA2MiAxOC44NDg5IDcuMDcyOTFDMTguODQ4OSA1LjkyNTE5IDE5Ljc3OTQgNC45OTQ3OCAyMC45MjcxIDQuOTk0NzhDMjIuMDc0OCA0Ljk5NDc4IDIzLjAwNTIgNS45MjUxOSAyMy4wMDUyIDcuMDcyOTFaTTkuMTUxMDMgMTRDOS4xNTEwMyAxNS4xNDc3IDguMjIwNjIgMTYuMDc4MSA3LjA3MjkxIDE2LjA3ODFDNS45MjUxOSAxNi4wNzgxIDQuOTk0NzggMTUuMTQ3NyA0Ljk5NDc4IDE0QzQuOTk0NzggMTIuODUyMyA1LjkyNTE5IDExLjkyMTkgNy4wNzI5MSAxMS45MjE5QzguMjIwNjIgMTEuOTIxOSA5LjE1MTAzIDEyLjg1MjMgOS4xNTEwMyAxNFpNMjAuOTI3MSAyMy4wMDUyQzIyLjA3NDggMjMuMDA1MiAyMy4wMDUyIDIyLjA3NDggMjMuMDA1MiAyMC45MjcxQzIzLjAwNTIgMTkuNzc5NCAyMi4wNzQ4IDE4Ljg0ODkgMjAuOTI3MSAxOC44NDg5QzE5Ljc3OTQgMTguODQ4OSAxOC44NDg5IDE5Ljc3OTQgMTguODQ4OSAyMC45MjcxQzE4Ljg0ODkgMjIuMDc0OCAxOS43Nzk0IDIzLjAwNTIgMjAuOTI3MSAyMy4wMDUyWiIgY2xpcC1ydWxlPSJldmVub2RkIiBmaWxsLXJ1bGU9ImV2ZW5vZGQiLz4mI3hhOzwvc3ZnPg==;fontFamily=VK Sans Display;" parent="1" vertex="1">
          <mxGeometry x="999" y="29.5" width="22" height="22" as="geometry" />
        </mxCell>
        <mxCell id="s1mG0tJND3tc6fStOFF7-7" value="BGP router" style="shape=image;verticalLabelPosition=bottom;labelBackgroundColor=default;verticalAlign=top;aspect=fixed;imageAspect=0;editableCssRules=.*;image=data:image/svg+xml,PHN2ZyB4bWxucz0iaHR0cDovL3d3dy53My5vcmcvMjAwMC9zdmciIGZpbGw9Im5vbmUiIHZpZXdCb3g9IjEuMjU3MTQwMDQwMzk3NjQ0IDEuMjU3MTQwMDQwMzk3NjQ0IDI5LjQ4NTc2MTY0MjQ1NjA1NSAyOS40ODU3NjE2NDI0NTYwNTUiIGhlaWdodD0iMjkuNDg1NzYxNjQyNDU2MDU1IiB3aWR0aD0iMjkuNDg1NzYxNjQyNDU2MDU1Ij4mI3hhOzxwYXRoIGZpbGw9IiMwMDc3RkYiIGQ9Ik0zLjMxNDI4IDE2QzMuMzE0MjggOC45OTM4NyA4Ljk5Mzg3IDMuMzE0MjggMTYgMy4zMTQyOEMyMy4wMDYxIDMuMzE0MjggMjguNjg1NyA4Ljk5Mzg3IDI4LjY4NTcgMTZDMjguNjg1NyAyMy4wMDYxIDIzLjAwNjEgMjguNjg1NyAxNiAyOC42ODU3QzguOTkzODcgMjguNjg1NyAzLjMxNDI4IDIzLjAwNjEgMy4zMTQyOCAxNlpNMTYgMS4yNTcxNEM3Ljg1Nzc0IDEuMjU3MTQgMS4yNTcxNCA3Ljg1Nzc0IDEuMjU3MTQgMTZDMS4yNTcxNCAyNC4xNDIzIDcuODU3NzQgMzAuNzQyOSAxNiAzMC43NDI5QzI0LjE0MjMgMzAuNzQyOSAzMC43NDI5IDI0LjE0MjMgMzAuNzQyOSAxNkMzMC43NDI5IDcuODU3NzQgMjQuMTQyMyAxLjI1NzE0IDE2IDEuMjU3MTRaTTE5LjUxNzMgNy4zMjYyNUMxOS44NzQzIDcuNjYxMSAxOS44ODgxIDguMjE3NTYgMTkuNTQ4MSA4LjU2OTE1QzE5LjIwOCA4LjkyMDczIDE4LjY0MjggOC45MzQzMSAxOC4yODU3IDguNTk5NDZMMTYuODkyOSA3LjUwMTgzVjE4LjkzMDRMMTYuODkyOCAxOC45MzlWMjQuNDk4MkwxOC4yODU3IDIzLjQwMDVDMTguNjQyOCAyMy4wNjU3IDE5LjIwOCAyMy4wNzkzIDE5LjU0OCAyMy40MzA5QzE5Ljg4ODEgMjMuNzgyNCAxOS44NzQzIDI0LjMzODkgMTkuNTE3MyAyNC42NzM3TDE2LjYxNTggMjcuMTg2MUMxNi4yNzA5IDI3LjUwOTQgMTUuNzI5MSAyNy41MDk0IDE1LjM4NDIgMjcuMTg2MUwxMi40ODI4IDI0LjY3MzdDMTIuMTI1NyAyNC4zMzg5IDEyLjExMTkgMjMuNzgyNCAxMi40NTIgMjMuNDMwOUMxMi43OTIgMjMuMDc5MyAxMy4zNTcyIDIzLjA2NTcgMTMuNzE0MyAyMy40MDA1TDE1LjEwNzEgMjQuNDk4MkwxNS4xMDcxIDEzLjA2OTZMMTUuMTA3MiAxMy4wNjA5VjcuNTAxODNMMTMuNzE0MyA4LjU5OTQ2QzEzLjM1NzIgOC45MzQzMSAxMi43OTIgOC45MjA3MyAxMi40NTIgOC41NjkxNUMxMi4xMTE5IDguMjE3NTYgMTIuMTI1NyA3LjY2MTEgMTIuNDgyOCA3LjMyNjI1TDE1LjM4NDMgNC44MTM5NUMxNS43MjkxIDQuNDkwNTkgMTYuMjcxIDQuNDkwNTkgMTYuNjE1OCA0LjgxMzk1TDE5LjUxNzMgNy4zMjYyNVpNMTAuMDk3NSAxOS45MTM4QzEwLjQ0OTEgMjAuMjUzOSAxMS4wMDU2IDIwLjI0MDEgMTEuMzQwNCAxOS44ODNMMTMuODUyNyAxNi45ODE2QzE0LjE3NjEgMTYuNjM2NyAxNC4xNzYxIDE2LjA5NDkgMTMuODUyNyAxNS43NUwxMS4zNDA0IDEyLjg0ODVDMTEuMDA1NiAxMi40OTE0IDEwLjQ0OTEgMTIuNDc3NyAxMC4wOTc1IDEyLjgxNzdDOS43NDU5NCAxMy4xNTc4IDkuNzMyMzYgMTMuNzIzIDEwLjA2NzIgMTQuMDgwMUwxMS4xNjQ4IDE1LjQ3MjlMNS40NTA1NCAxNS40NzI5QzQuOTY1MDIgMTUuNDcyOSA0LjU3MTQyIDE1Ljg3MjcgNC41NzE0MiAxNi4zNjU4QzQuNTcxNDIgMTYuODU4OSA0Ljk2NTAxIDE3LjI1ODcgNS40NTA1NCAxNy4yNTg3TDExLjE2NDggMTcuMjU4N0wxMC4wNjcyIDE4LjY1MTVDOS43MzIzNiAxOS4wMDg2IDkuNzQ1OTQgMTkuNTczNyAxMC4wOTc1IDE5LjkxMzhaTTIwLjY2MzQgMTIuODQ4NUMyMC45OTgyIDEyLjQ5MTQgMjEuNTU0NyAxMi40Nzc3IDIxLjkwNjMgMTIuODE3N0MyMi4yNTc5IDEzLjE1NzggMjIuMjcxNSAxMy43MjMgMjEuOTM2NiAxNC4wOEwyMC44MzkgMTUuNDcyOUgyNi41NTMzQzI3LjAzODggMTUuNDcyOSAyNy40MzI0IDE1Ljg3MjYgMjcuNDMyNCAxNi4zNjU4QzI3LjQzMjQgMTYuODU4OSAyNy4wMzg4IDE3LjI1ODYgMjYuNTUzMyAxNy4yNTg2SDIwLjgzOUwyMS45MzY2IDE4LjY1MTVDMjIuMjcxNSAxOS4wMDg2IDIyLjI1NzkgMTkuNTczNyAyMS45MDYzIDE5LjkxMzhDMjEuNTU0NyAyMC4yNTM5IDIwLjk5ODIgMjAuMjQwMSAyMC42NjM0IDE5Ljg4M0wxOC4xNTExIDE2Ljk4MTVDMTcuODI3NyAxNi42MzY3IDE3LjgyNzcgMTYuMDk0OCAxOC4xNTExIDE1Ljc1TDIwLjY2MzQgMTIuODQ4NVoiIGNsaXAtcnVsZT0iZXZlbm9kZCIgZmlsbC1ydWxlPSJldmVub2RkIi8+JiN4YTs8L3N2Zz4=;whiteSpace=wrap;" parent="1" vertex="1">
          <mxGeometry x="1070" y="25.5" width="29" height="29" as="geometry" />
        </mxCell>
        <mxCell id="s1mG0tJND3tc6fStOFF7-14" value="Crosswiring" style="shape=image;verticalLabelPosition=bottom;labelBackgroundColor=default;verticalAlign=top;aspect=fixed;imageAspect=0;editableCssRules=.*;image=data:image/svg+xml,PHN2ZyB4bWxucz0iaHR0cDovL3d3dy53My5vcmcvMjAwMC9zdmciIGZpbGw9Im5vbmUiIHZpZXdCb3g9IjIuOTE2NjYwMDcwNDE5MzExNSAyLjkxNjY2MDA3MDQxOTMxMTUgMjIuMTY2NjM5MzI4MDAyOTMgMjIuMTY2NjM5MzI4MDAyOTMiIGhlaWdodD0iMjIuMTY2NjM5MzI4MDAyOTMiIHdpZHRoPSIyMi4xNjY2MzkzMjgwMDI5MyI+JiN4YTs8cGF0aCBmaWxsPSIjMDA3N0ZGIiBkPSJNMjUuMDgzMyA3LjA3MjkxQzI1LjA4MzMgOS4zNjgzNCAyMy4yMjI1IDExLjIyOTIgMjAuOTI3MSAxMS4yMjkyQzIwLjM3MDkgMTEuMjI5MiAxOS44NDAyIDExLjExOTkgMTkuMzU1NCAxMC45MjE3QzE5LjA1MTcgMTAuNzk3NiAxOC42OTM0IDEwLjg0OTEgMTguNDc0NyAxMS4wOTM3TDE2LjI4MzEgMTMuNTQ0NkMxNi4wNDggMTMuODA3NSAxNi4wNDggMTQuMjA1IDE2LjI4MzEgMTQuNDY4TDE4LjQ2NiAxNi45MDk4QzE4LjY4NSAxNy4xNTQ5IDE5LjA0NDEgMTcuMjA2MiAxOS4zNDgyIDE3LjA4MTJDMTkuODM1IDE2Ljg4MTIgMjAuMzY4MSAxNi43NzA4IDIwLjkyNzEgMTYuNzcwOEMyMy4yMjI1IDE2Ljc3MDggMjUuMDgzMyAxOC42MzE2IDI1LjA4MzMgMjAuOTI3MUMyNS4wODMzIDIzLjIyMjUgMjMuMjIyNSAyNS4wODMzIDIwLjkyNzEgMjUuMDgzM0MxOC42MzE2IDI1LjA4MzMgMTYuNzcwOCAyMy4yMjI1IDE2Ljc3MDggMjAuOTI3MUMxNi43NzA4IDIwLjMyNzYgMTYuODk3OCAxOS43NTc3IDE3LjEyNjIgMTkuMjQyOUMxNy4yNDk1IDE4Ljk2NSAxNy4yMjM1IDE4LjYzNSAxNy4wMjA2IDE4LjQwODZMMTQuMjA2NSAxNS4yNjk0QzE0LjA3NTEgMTUuMTIyOCAxMy44ODc1IDE1LjAzOTEgMTMuNjkwNyAxNS4wMzkxSDExLjYzNTJDMTEuMzE5MSAxNS4wMzkxIDExLjA0ODggMTUuMjU1NyAxMC45MzA5IDE1LjU0OUMxMC4zMTY3IDE3LjA3NzMgOC44MjA4MyAxOC4xNTYyIDcuMDcyOTEgMTguMTU2MkM0Ljc3NzQ3IDE4LjE1NjIgMi45MTY2NiAxNi4yOTU0IDIuOTE2NjYgMTRDMi45MTY2NiAxMS43MDQ2IDQuNzc3NDcgOS44NDM3NCA3LjA3MjkxIDkuODQzNzRDOC44MjA4MyA5Ljg0Mzc0IDEwLjMxNjcgMTAuOTIyNyAxMC45MzA5IDEyLjQ1MUMxMS4wNDg4IDEyLjc0NDMgMTEuMzE5MSAxMi45NjA5IDExLjYzNTIgMTIuOTYwOUgxMy42OTE0QzEzLjg4NzggMTIuOTYwOSAxNC4wNzUgMTIuODc3NSAxNC4yMDY0IDEyLjczMTVMMTcuMDIzMiA5LjYwMDE1QzE3LjIyNzIgOS4zNzMzOSAxNy4yNTMzIDkuMDQyMDkgMTcuMTI5MSA4Ljc2MzUxQzE2Ljg5ODggOC4yNDcwMiAxNi43NzA4IDcuNjc0OTEgMTYuNzcwOCA3LjA3MjkxQzE2Ljc3MDggNC43Nzc0NyAxOC42MzE2IDIuOTE2NjYgMjAuOTI3MSAyLjkxNjY2QzIzLjIyMjUgMi45MTY2NiAyNS4wODMzIDQuNzc3NDcgMjUuMDgzMyA3LjA3MjkxWk0yMy4wMDUyIDcuMDcyOTFDMjMuMDA1MiA4LjIyMDYyIDIyLjA3NDggOS4xNTEwMyAyMC45MjcxIDkuMTUxMDNDMTkuNzc5NCA5LjE1MTAzIDE4Ljg0ODkgOC4yMjA2MiAxOC44NDg5IDcuMDcyOTFDMTguODQ4OSA1LjkyNTE5IDE5Ljc3OTQgNC45OTQ3OCAyMC45MjcxIDQuOTk0NzhDMjIuMDc0OCA0Ljk5NDc4IDIzLjAwNTIgNS45MjUxOSAyMy4wMDUyIDcuMDcyOTFaTTkuMTUxMDMgMTRDOS4xNTEwMyAxNS4xNDc3IDguMjIwNjIgMTYuMDc4MSA3LjA3MjkxIDE2LjA3ODFDNS45MjUxOSAxNi4wNzgxIDQuOTk0NzggMTUuMTQ3NyA0Ljk5NDc4IDE0QzQuOTk0NzggMTIuODUyMyA1LjkyNTE5IDExLjkyMTkgNy4wNzI5MSAxMS45MjE5QzguMjIwNjIgMTEuOTIxOSA5LjE1MTAzIDEyLjg1MjMgOS4xNTEwMyAxNFpNMjAuOTI3MSAyMy4wMDUyQzIyLjA3NDggMjMuMDA1MiAyMy4wMDUyIDIyLjA3NDggMjMuMDA1MiAyMC45MjcxQzIzLjAwNTIgMTkuNzc5NCAyMi4wNzQ4IDE4Ljg0ODkgMjAuOTI3MSAxOC44NDg5QzE5Ljc3OTQgMTguODQ4OSAxOC44NDg5IDE5Ljc3OTQgMTguODQ4OSAyMC45MjcxQzE4Ljg0ODkgMjIuMDc0OCAxOS43Nzk0IDIzLjAwNTIgMjAuOTI3MSAyMy4wMDUyWiIgY2xpcC1ydWxlPSJldmVub2RkIiBmaWxsLXJ1bGU9ImV2ZW5vZGQiLz4mI3hhOzwvc3ZnPg==;fontFamily=VK Sans Display;" parent="1" vertex="1">
          <mxGeometry x="1134" y="29.5" width="22" height="22" as="geometry" />
        </mxCell>
        <mxCell id="s1mG0tJND3tc6fStOFF7-12" value="Leased fiber&#xa; or L2 VPN" style="shape=image;verticalLabelPosition=bottom;labelBackgroundColor=default;verticalAlign=top;aspect=fixed;imageAspect=0;editableCssRules=.*;image=data:image/svg+xml,PHN2ZyB4bWxucz0iaHR0cDovL3d3dy53My5vcmcvMjAwMC9zdmciIGZpbGw9Im5vbmUiIHZpZXdCb3g9IjIgMiAyNCAyNCIgaGVpZ2h0PSIyNCIgd2lkdGg9IjI0Ij4mI3hhOzxwYXRoIGZpbGw9IiMwMDc3RkYiIGQ9Ik0xNC4wMDI4IDJMMTQgMkM3LjM3MjU4IDIgMiA3LjM3MjU4IDIgMTRDMiAyMC42Mjc0IDcuMzcyNTggMjYgMTQgMjZDMjAuNjI3NCAyNiAyNiAyMC42Mjc0IDI2IDE0QzI2IDcuMzczNSAyMC42Mjg5IDIuMDAxNDkgMTQuMDAyOCAyWk0xNi4zMTM4IDIzLjczMUMxOS4wMjI2IDIzLjA4OTMgMjEuMzA1MiAyMS4zNDU5IDIyLjY2MjIgMTlIMTguMzc4N0MxNy45Nzc5IDIwLjUyODYgMTcuNDI5NiAyMS43OTE0IDE2Ljg3NTYgMjIuNzk1NkMxNi42ODY4IDIzLjEzNzcgMTYuNDk3NyAyMy40NDk0IDE2LjMxMzggMjMuNzMxWk0xOC43ODUzIDE3SDIzLjU0MjJDMjMuODM5NiAxNi4wNTMgMjQgMTUuMDQ1MiAyNCAxNEMyNCAxMi45NTQ4IDIzLjgzOTYgMTEuOTQ3IDIzLjU0MjIgMTFIMTguNzg1M0MxOC45MjE0IDExLjkyNDQgMTkgMTIuOTI0IDE5IDE0QzE5IDE1LjA3NiAxOC45MjE0IDE2LjA3NTYgMTguNzg1MyAxN1pNMTYuNzYxMiAxMUMxNi45MTExIDExLjkwOTcgMTcgMTIuOTA5IDE3IDE0QzE3IDE1LjA5MSAxNi45MTExIDE2LjA5MDMgMTYuNzYxMiAxN0gxMS4yMzg4QzExLjA4ODkgMTYuMDkwMyAxMSAxNS4wOTEgMTEgMTRDMTEgMTIuOTA5IDExLjA4ODkgMTEuOTA5NyAxMS4yMzg4IDExSDE2Ljc2MTJaTTE4LjM3ODcgOUgyMi42NjIyQzIxLjMwNTIgNi42NTQxNCAxOS4wMjI2IDQuOTEwNjkgMTYuMzEzOCA0LjI2OTAzQzE2LjQ5NzcgNC41NTA2NCAxNi42ODY4IDQuODYyMzEgMTYuODc1NiA1LjIwNDQyQzE3LjQyOTYgNi4yMDg2IDE3Ljk3NzkgNy40NzE0NSAxOC4zNzg3IDlaTTExLjY4NjIgNC4yNjkwM0M4Ljk3NzQyIDQuOTEwNjkgNi42OTQ4MyA2LjY1NDE0IDUuMzM3ODIgOUg5LjYyMTMxQzEwLjAyMjEgNy40NzE0NSAxMC41NzA0IDYuMjA4NiAxMS4xMjQ0IDUuMjA0NDJDMTEuMzEzMiA0Ljg2MjMxIDExLjUwMjMgNC41NTA2NCAxMS42ODYyIDQuMjY5MDNaTTExLjY5OCA5QzEyLjAzNTcgNy44Njg2MiAxMi40NTc4IDYuOTI3NzMgMTIuODc1NiA2LjE3MDU4QzEzLjI3OTEgNS40MzkxOCAxMy42ODAxIDQuODc2NjYgMTQgNC40NzgzNkMxNC4zMTk5IDQuODc2NjYgMTQuNzIwOSA1LjQzOTE4IDE1LjEyNDQgNi4xNzA1OEMxNS41NDIyIDYuOTI3NzMgMTUuOTY0MyA3Ljg2ODYyIDE2LjMwMiA5SDExLjY5OFpNOS4yMTQ2OCAxMUg0LjQ1NzhDNC4xNjAzNSAxMS45NDcgNCAxMi45NTQ4IDQgMTRDNCAxNS4wNDUyIDQuMTYwMzUgMTYuMDUzIDQuNDU3OCAxN0g5LjIxNDY4QzkuMDc4NTcgMTYuMDc1NiA5IDE1LjA3NiA5IDE0QzkgMTIuOTI0IDkuMDc4NTcgMTEuOTI0NCA5LjIxNDY4IDExWk05LjYyMTMxIDE5SDUuMzM3ODJDNi42OTQ4MyAyMS4zNDU5IDguOTc3NDIgMjMuMDg5MyAxMS42ODYyIDIzLjczMUMxMS41MDIzIDIzLjQ0OTQgMTEuMzEzMiAyMy4xMzc3IDExLjEyNDQgMjIuNzk1NkMxMC41NzA0IDIxLjc5MTQgMTAuMDIyMSAyMC41Mjg2IDkuNjIxMzEgMTlaTTExLjY5OCAxOUgxNi4zMDJDMTUuOTY0MyAyMC4xMzE0IDE1LjU0MjIgMjEuMDcyMyAxNS4xMjQ0IDIxLjgyOTRDMTQuNzIwOSAyMi41NjA4IDE0LjMxOTkgMjMuMTIzMyAxNCAyMy41MjE2QzEzLjY4MDEgMjMuMTIzMyAxMy4yNzkxIDIyLjU2MDggMTIuODc1NiAyMS44Mjk0QzEyLjQ1NzggMjEuMDcyMyAxMi4wMzU3IDIwLjEzMTQgMTEuNjk4IDE5WiIgY2xpcC1ydWxlPSJldmVub2RkIiBmaWxsLXJ1bGU9ImV2ZW5vZGQiLz4mI3hhOzwvc3ZnPg==;fontFamily=VK Sans Display;" parent="1" vertex="1">
          <mxGeometry x="1230" y="28" width="24" height="24" as="geometry" />
        </mxCell>
        <mxCell id="s1mG0tJND3tc6fStOFF7-23" value="Crosswiring" style="shape=image;verticalLabelPosition=bottom;labelBackgroundColor=default;verticalAlign=top;aspect=fixed;imageAspect=0;editableCssRules=.*;image=data:image/svg+xml,PHN2ZyB4bWxucz0iaHR0cDovL3d3dy53My5vcmcvMjAwMC9zdmciIGZpbGw9Im5vbmUiIHZpZXdCb3g9IjIuOTE2NjYwMDcwNDE5MzExNSAyLjkxNjY2MDA3MDQxOTMxMTUgMjIuMTY2NjM5MzI4MDAyOTMgMjIuMTY2NjM5MzI4MDAyOTMiIGhlaWdodD0iMjIuMTY2NjM5MzI4MDAyOTMiIHdpZHRoPSIyMi4xNjY2MzkzMjgwMDI5MyI+JiN4YTs8cGF0aCBmaWxsPSIjMDA3N0ZGIiBkPSJNMjUuMDgzMyA3LjA3MjkxQzI1LjA4MzMgOS4zNjgzNCAyMy4yMjI1IDExLjIyOTIgMjAuOTI3MSAxMS4yMjkyQzIwLjM3MDkgMTEuMjI5MiAxOS44NDAyIDExLjExOTkgMTkuMzU1NCAxMC45MjE3QzE5LjA1MTcgMTAuNzk3NiAxOC42OTM0IDEwLjg0OTEgMTguNDc0NyAxMS4wOTM3TDE2LjI4MzEgMTMuNTQ0NkMxNi4wNDggMTMuODA3NSAxNi4wNDggMTQuMjA1IDE2LjI4MzEgMTQuNDY4TDE4LjQ2NiAxNi45MDk4QzE4LjY4NSAxNy4xNTQ5IDE5LjA0NDEgMTcuMjA2MiAxOS4zNDgyIDE3LjA4MTJDMTkuODM1IDE2Ljg4MTIgMjAuMzY4MSAxNi43NzA4IDIwLjkyNzEgMTYuNzcwOEMyMy4yMjI1IDE2Ljc3MDggMjUuMDgzMyAxOC42MzE2IDI1LjA4MzMgMjAuOTI3MUMyNS4wODMzIDIzLjIyMjUgMjMuMjIyNSAyNS4wODMzIDIwLjkyNzEgMjUuMDgzM0MxOC42MzE2IDI1LjA4MzMgMTYuNzcwOCAyMy4yMjI1IDE2Ljc3MDggMjAuOTI3MUMxNi43NzA4IDIwLjMyNzYgMTYuODk3OCAxOS43NTc3IDE3LjEyNjIgMTkuMjQyOUMxNy4yNDk1IDE4Ljk2NSAxNy4yMjM1IDE4LjYzNSAxNy4wMjA2IDE4LjQwODZMMTQuMjA2NSAxNS4yNjk0QzE0LjA3NTEgMTUuMTIyOCAxMy44ODc1IDE1LjAzOTEgMTMuNjkwNyAxNS4wMzkxSDExLjYzNTJDMTEuMzE5MSAxNS4wMzkxIDExLjA0ODggMTUuMjU1NyAxMC45MzA5IDE1LjU0OUMxMC4zMTY3IDE3LjA3NzMgOC44MjA4MyAxOC4xNTYyIDcuMDcyOTEgMTguMTU2MkM0Ljc3NzQ3IDE4LjE1NjIgMi45MTY2NiAxNi4yOTU0IDIuOTE2NjYgMTRDMi45MTY2NiAxMS43MDQ2IDQuNzc3NDcgOS44NDM3NCA3LjA3MjkxIDkuODQzNzRDOC44MjA4MyA5Ljg0Mzc0IDEwLjMxNjcgMTAuOTIyNyAxMC45MzA5IDEyLjQ1MUMxMS4wNDg4IDEyLjc0NDMgMTEuMzE5MSAxMi45NjA5IDExLjYzNTIgMTIuOTYwOUgxMy42OTE0QzEzLjg4NzggMTIuOTYwOSAxNC4wNzUgMTIuODc3NSAxNC4yMDY0IDEyLjczMTVMMTcuMDIzMiA5LjYwMDE1QzE3LjIyNzIgOS4zNzMzOSAxNy4yNTMzIDkuMDQyMDkgMTcuMTI5MSA4Ljc2MzUxQzE2Ljg5ODggOC4yNDcwMiAxNi43NzA4IDcuNjc0OTEgMTYuNzcwOCA3LjA3MjkxQzE2Ljc3MDggNC43Nzc0NyAxOC42MzE2IDIuOTE2NjYgMjAuOTI3MSAyLjkxNjY2QzIzLjIyMjUgMi45MTY2NiAyNS4wODMzIDQuNzc3NDcgMjUuMDgzMyA3LjA3MjkxWk0yMy4wMDUyIDcuMDcyOTFDMjMuMDA1MiA4LjIyMDYyIDIyLjA3NDggOS4xNTEwMyAyMC45MjcxIDkuMTUxMDNDMTkuNzc5NCA5LjE1MTAzIDE4Ljg0ODkgOC4yMjA2MiAxOC44NDg5IDcuMDcyOTFDMTguODQ4OSA1LjkyNTE5IDE5Ljc3OTQgNC45OTQ3OCAyMC45MjcxIDQuOTk0NzhDMjIuMDc0OCA0Ljk5NDc4IDIzLjAwNTIgNS45MjUxOSAyMy4wMDUyIDcuMDcyOTFaTTkuMTUxMDMgMTRDOS4xNTEwMyAxNS4xNDc3IDguMjIwNjIgMTYuMDc4MSA3LjA3MjkxIDE2LjA3ODFDNS45MjUxOSAxNi4wNzgxIDQuOTk0NzggMTUuMTQ3NyA0Ljk5NDc4IDE0QzQuOTk0NzggMTIuODUyMyA1LjkyNTE5IDExLjkyMTkgNy4wNzI5MSAxMS45MjE5QzguMjIwNjIgMTEuOTIxOSA5LjE1MTAzIDEyLjg1MjMgOS4xNTEwMyAxNFpNMjAuOTI3MSAyMy4wMDUyQzIyLjA3NDggMjMuMDA1MiAyMy4wMDUyIDIyLjA3NDggMjMuMDA1MiAyMC45MjcxQzIzLjAwNTIgMTkuNzc5NCAyMi4wNzQ4IDE4Ljg0ODkgMjAuOTI3MSAxOC44NDg5QzE5Ljc3OTQgMTguODQ4OSAxOC44NDg5IDE5Ljc3OTQgMTguODQ4OSAyMC45MjcxQzE4Ljg0ODkgMjIuMDc0OCAxOS43Nzk0IDIzLjAwNTIgMjAuOTI3MSAyMy4wMDUyWiIgY2xpcC1ydWxlPSJldmVub2RkIiBmaWxsLXJ1bGU9ImV2ZW5vZGQiLz4mI3hhOzwvc3ZnPg==;fontFamily=VK Sans Display;" parent="1" vertex="1">
          <mxGeometry x="1343" y="29" width="22" height="22" as="geometry" />
        </mxCell>
        <mxCell id="s1mG0tJND3tc6fStOFF7-17" value="Cloud Direct Connect&#xa;switch" style="shape=image;verticalLabelPosition=bottom;labelBackgroundColor=default;verticalAlign=top;aspect=fixed;imageAspect=0;editableCssRules=.*;image=data:image/svg+xml,PHN2ZyB4bWxucz0iaHR0cDovL3d3dy53My5vcmcvMjAwMC9zdmciIGZpbGw9Im5vbmUiIHZpZXdCb3g9IjIgMiA0NiAyMCIgaGVpZ2h0PSIyMCIgd2lkdGg9IjQ2Ij4mI3hhOzxwYXRoIGZpbGw9IiMwMDc3RkYiIGQ9Ik02IDRINDRDNDUuMTA0NiA0IDQ2IDQuODk1NDMgNDYgNlYxOEM0NiAxOS4xMDQ2IDQ1LjEwNDYgMjAgNDQgMjBINkM0Ljg5NTQzIDIwIDQgMTkuMTA0NiA0IDE4VjZDNCA0Ljg5NTQzIDQuODk1NDMgNCA2IDRaTTIgNkMyIDMuNzkwODYgMy43OTA4NiAyIDYgMkg0NEM0Ni4yMDkxIDIgNDggMy43OTA4NiA0OCA2VjE4QzQ4IDIwLjIwOTEgNDYuMjA5MSAyMiA0NCAyMkg2QzMuNzkwODYgMjIgMiAyMC4yMDkxIDIgMThWNlpNOCAxMkgxMlYxNkg4VjEyWk02IDEyQzYgMTAuODk1NCA2Ljg5NTQzIDEwIDggMTBIMTJDMTMuMTA0NiAxMCAxNCAxMC44OTU0IDE0IDEyVjE2QzE0IDE3LjEwNDYgMTMuMTA0NiAxOCAxMiAxOEg4QzYuODk1NDMgMTggNiAxNy4xMDQ2IDYgMTZWMTJaTTIyIDEySDE4VjE2SDIyVjEyWk0xOCAxMEMxNi44OTU0IDEwIDE2IDEwLjg5NTQgMTYgMTJWMTZDMTYgMTcuMTA0NiAxNi44OTU0IDE4IDE4IDE4SDIyQzIzLjEwNDYgMTggMjQgMTcuMTA0NiAyNCAxNlYxMkMyNCAxMC44OTU0IDIzLjEwNDYgMTAgMjIgMTBIMThaTTI4IDEySDMyVjE2SDI4VjEyWk0yNiAxMkMyNiAxMC44OTU0IDI2Ljg5NTQgMTAgMjggMTBIMzJDMzMuMTA0NiAxMCAzNCAxMC44OTU0IDM0IDEyVjE2QzM0IDE3LjEwNDYgMzMuMTA0NiAxOCAzMiAxOEgyOEMyNi44OTU0IDE4IDI2IDE3LjEwNDYgMjYgMTZWMTJaTTQyIDEySDM4VjE2SDQyVjEyWk0zOCAxMEMzNi44OTU0IDEwIDM2IDEwLjg5NTQgMzYgMTJWMTZDMzYgMTcuMTA0NiAzNi44OTU0IDE4IDM4IDE4SDQyQzQzLjEwNDYgMTggNDQgMTcuMTA0NiA0NCAxNlYxMkM0NCAxMC44OTU0IDQzLjEwNDYgMTAgNDIgMTBIMzhaTTcgNkM2LjQ0NzcyIDYgNiA2LjQ0NzcyIDYgN0M2IDcuNTUyMjggNi40NDc3MiA4IDcgOEw0MyA4QzQzLjU1MjMgOCA0NCA3LjU1MjI4IDQ0IDdDNDQgNi40NDc3MSA0My41NTIzIDYgNDMgNkw3IDZaIiBjbGlwLXJ1bGU9ImV2ZW5vZGQiIGZpbGwtcnVsZT0iZXZlbm9kZCIvPiYjeGE7PC9zdmc+;fontFamily=VK Sans Display;labelBorderColor=none;" parent="1" vertex="1">
          <mxGeometry x="1437.5" y="29.5" width="46" height="20" as="geometry" />
        </mxCell>
        <mxCell id="s1mG0tJND3tc6fStOFF7-18" value="Cloud Direct Connect" style="shape=image;verticalLabelPosition=bottom;labelBackgroundColor=default;verticalAlign=top;aspect=fixed;imageAspect=0;editableCssRules=.*;image=data:image/svg+xml,PHN2ZyB4bWxucz0iaHR0cDovL3d3dy53My5vcmcvMjAwMC9zdmciIGZpbGw9Im5vbmUiIHZpZXdCb3g9IjIuOTE2NjYwMDcwNDE5MzExNSAyLjkxNjY2MDA3MDQxOTMxMTUgMjIuMTY2NjM5MzI4MDAyOTMgMjIuMTY2NjM5MzI4MDAyOTMiIGhlaWdodD0iMjIuMTY2NjM5MzI4MDAyOTMiIHdpZHRoPSIyMi4xNjY2MzkzMjgwMDI5MyI+JiN4YTs8cGF0aCBmaWxsPSIjMDA3N0ZGIiBkPSJNMjUuMDgzMyA3LjA3MjkxQzI1LjA4MzMgOS4zNjgzNCAyMy4yMjI1IDExLjIyOTIgMjAuOTI3MSAxMS4yMjkyQzIwLjM3MDkgMTEuMjI5MiAxOS44NDAyIDExLjExOTkgMTkuMzU1NCAxMC45MjE3QzE5LjA1MTcgMTAuNzk3NiAxOC42OTM0IDEwLjg0OTEgMTguNDc0NyAxMS4wOTM3TDE2LjI4MzEgMTMuNTQ0NkMxNi4wNDggMTMuODA3NSAxNi4wNDggMTQuMjA1IDE2LjI4MzEgMTQuNDY4TDE4LjQ2NiAxNi45MDk4QzE4LjY4NSAxNy4xNTQ5IDE5LjA0NDEgMTcuMjA2MiAxOS4zNDgyIDE3LjA4MTJDMTkuODM1IDE2Ljg4MTIgMjAuMzY4MSAxNi43NzA4IDIwLjkyNzEgMTYuNzcwOEMyMy4yMjI1IDE2Ljc3MDggMjUuMDgzMyAxOC42MzE2IDI1LjA4MzMgMjAuOTI3MUMyNS4wODMzIDIzLjIyMjUgMjMuMjIyNSAyNS4wODMzIDIwLjkyNzEgMjUuMDgzM0MxOC42MzE2IDI1LjA4MzMgMTYuNzcwOCAyMy4yMjI1IDE2Ljc3MDggMjAuOTI3MUMxNi43NzA4IDIwLjMyNzYgMTYuODk3OCAxOS43NTc3IDE3LjEyNjIgMTkuMjQyOUMxNy4yNDk1IDE4Ljk2NSAxNy4yMjM1IDE4LjYzNSAxNy4wMjA2IDE4LjQwODZMMTQuMjA2NSAxNS4yNjk0QzE0LjA3NTEgMTUuMTIyOCAxMy44ODc1IDE1LjAzOTEgMTMuNjkwNyAxNS4wMzkxSDExLjYzNTJDMTEuMzE5MSAxNS4wMzkxIDExLjA0ODggMTUuMjU1NyAxMC45MzA5IDE1LjU0OUMxMC4zMTY3IDE3LjA3NzMgOC44MjA4MyAxOC4xNTYyIDcuMDcyOTEgMTguMTU2MkM0Ljc3NzQ3IDE4LjE1NjIgMi45MTY2NiAxNi4yOTU0IDIuOTE2NjYgMTRDMi45MTY2NiAxMS43MDQ2IDQuNzc3NDcgOS44NDM3NCA3LjA3MjkxIDkuODQzNzRDOC44MjA4MyA5Ljg0Mzc0IDEwLjMxNjcgMTAuOTIyNyAxMC45MzA5IDEyLjQ1MUMxMS4wNDg4IDEyLjc0NDMgMTEuMzE5MSAxMi45NjA5IDExLjYzNTIgMTIuOTYwOUgxMy42OTE0QzEzLjg4NzggMTIuOTYwOSAxNC4wNzUgMTIuODc3NSAxNC4yMDY0IDEyLjczMTVMMTcuMDIzMiA5LjYwMDE1QzE3LjIyNzIgOS4zNzMzOSAxNy4yNTMzIDkuMDQyMDkgMTcuMTI5MSA4Ljc2MzUxQzE2Ljg5ODggOC4yNDcwMiAxNi43NzA4IDcuNjc0OTEgMTYuNzcwOCA3LjA3MjkxQzE2Ljc3MDggNC43Nzc0NyAxOC42MzE2IDIuOTE2NjYgMjAuOTI3MSAyLjkxNjY2QzIzLjIyMjUgMi45MTY2NiAyNS4wODMzIDQuNzc3NDcgMjUuMDgzMyA3LjA3MjkxWk0yMy4wMDUyIDcuMDcyOTFDMjMuMDA1MiA4LjIyMDYyIDIyLjA3NDggOS4xNTEwMyAyMC45MjcxIDkuMTUxMDNDMTkuNzc5NCA5LjE1MTAzIDE4Ljg0ODkgOC4yMjA2MiAxOC44NDg5IDcuMDcyOTFDMTguODQ4OSA1LjkyNTE5IDE5Ljc3OTQgNC45OTQ3OCAyMC45MjcxIDQuOTk0NzhDMjIuMDc0OCA0Ljk5NDc4IDIzLjAwNTIgNS45MjUxOSAyMy4wMDUyIDcuMDcyOTFaTTkuMTUxMDMgMTRDOS4xNTEwMyAxNS4xNDc3IDguMjIwNjIgMTYuMDc4MSA3LjA3MjkxIDE2LjA3ODFDNS45MjUxOSAxNi4wNzgxIDQuOTk0NzggMTUuMTQ3NyA0Ljk5NDc4IDE0QzQuOTk0NzggMTIuODUyMyA1LjkyNTE5IDExLjkyMTkgNy4wNzI5MSAxMS45MjE5QzguMjIwNjIgMTEuOTIxOSA5LjE1MTAzIDEyLjg1MjMgOS4xNTEwMyAxNFpNMjAuOTI3MSAyMy4wMDUyQzIyLjA3NDggMjMuMDA1MiAyMy4wMDUyIDIyLjA3NDggMjMuMDA1MiAyMC45MjcxQzIzLjAwNTIgMTkuNzc5NCAyMi4wNzQ4IDE4Ljg0ODkgMjAuOTI3MSAxOC44NDg5QzE5Ljc3OTQgMTguODQ4OSAxOC44NDg5IDE5Ljc3OTQgMTguODQ4OSAyMC45MjcxQzE4Ljg0ODkgMjIuMDc0OCAxOS43Nzk0IDIzLjAwNTIgMjAuOTI3MSAyMy4wMDUyWiIgY2xpcC1ydWxlPSJldmVub2RkIiBmaWxsLXJ1bGU9ImV2ZW5vZGQiLz4mI3hhOzwvc3ZnPg==;fontFamily=VK Sans Display;labelPosition=center;align=center;whiteSpace=wrap;" parent="1" vertex="1">
          <mxGeometry x="1560" y="29" width="22" height="22" as="geometry" />
        </mxCell>
        <mxCell id="s1mG0tJND3tc6fStOFF7-134" style="edgeStyle=none;shape=connector;rounded=1;orthogonalLoop=1;jettySize=auto;html=1;entryX=0.5;entryY=0;entryDx=0;entryDy=0;dashed=1;strokeColor=#7C8A9A;strokeWidth=2;align=center;verticalAlign=middle;arcSize=8;fontFamily=VK Sans Display;fontSize=11;fontColor=#212121;labelBackgroundColor=default;endArrow=oval;endFill=1;exitX=0.5;exitY=0;exitDx=0;exitDy=0;startArrow=oval;startFill=1;endSize=2;startSize=2;" parent="1" source="s1mG0tJND3tc6fStOFF7-20" target="s1mG0tJND3tc6fStOFF7-7" edge="1">
          <mxGeometry relative="1" as="geometry">
            <Array as="points">
              <mxPoint x="1635" />
              <mxPoint x="1085" />
            </Array>
          </mxGeometry>
        </mxCell>
        <mxCell id="s1mG0tJND3tc6fStOFF7-136" value="BGP" style="edgeLabel;html=1;align=center;verticalAlign=middle;resizable=0;points=[];fontFamily=VK Sans Display;fontSize=11;fontColor=#212121;labelBackgroundColor=default;spacing=8;textOpacity=70;" parent="s1mG0tJND3tc6fStOFF7-134" vertex="1" connectable="0">
          <mxGeometry x="-0.0111" y="-6" relative="1" as="geometry">
            <mxPoint x="-8" y="6" as="offset" />
          </mxGeometry>
        </mxCell>
        <mxCell id="s1mG0tJND3tc6fStOFF7-20" value="Advanced router" style="shape=image;verticalLabelPosition=bottom;labelBackgroundColor=default;verticalAlign=top;aspect=fixed;imageAspect=0;editableCssRules=.*;image=data:image/svg+xml,PHN2ZyB4bWxucz0iaHR0cDovL3d3dy53My5vcmcvMjAwMC9zdmciIGZpbGw9Im5vbmUiIHZpZXdCb3g9IjEuMjU3MTQwMDQwMzk3NjQ0IDEuMjU3MTQwMDQwMzk3NjQ0IDI5LjQ4NTc2MTY0MjQ1NjA1NSAyOS40ODU3NjE2NDI0NTYwNTUiIGhlaWdodD0iMjkuNDg1NzYxNjQyNDU2MDU1IiB3aWR0aD0iMjkuNDg1NzYxNjQyNDU2MDU1Ij4mI3hhOzxwYXRoIGZpbGw9IiMwMDc3RkYiIGQ9Ik0zLjMxNDI4IDE2QzMuMzE0MjggOC45OTM4NyA4Ljk5Mzg3IDMuMzE0MjggMTYgMy4zMTQyOEMyMy4wMDYxIDMuMzE0MjggMjguNjg1NyA4Ljk5Mzg3IDI4LjY4NTcgMTZDMjguNjg1NyAyMy4wMDYxIDIzLjAwNjEgMjguNjg1NyAxNiAyOC42ODU3QzguOTkzODcgMjguNjg1NyAzLjMxNDI4IDIzLjAwNjEgMy4zMTQyOCAxNlpNMTYgMS4yNTcxNEM3Ljg1Nzc0IDEuMjU3MTQgMS4yNTcxNCA3Ljg1Nzc0IDEuMjU3MTQgMTZDMS4yNTcxNCAyNC4xNDIzIDcuODU3NzQgMzAuNzQyOSAxNiAzMC43NDI5QzI0LjE0MjMgMzAuNzQyOSAzMC43NDI5IDI0LjE0MjMgMzAuNzQyOSAxNkMzMC43NDI5IDcuODU3NzQgMjQuMTQyMyAxLjI1NzE0IDE2IDEuMjU3MTRaTTE5LjUxNzMgNy4zMjYyNUMxOS44NzQzIDcuNjYxMSAxOS44ODgxIDguMjE3NTYgMTkuNTQ4MSA4LjU2OTE1QzE5LjIwOCA4LjkyMDczIDE4LjY0MjggOC45MzQzMSAxOC4yODU3IDguNTk5NDZMMTYuODkyOSA3LjUwMTgzVjE4LjkzMDRMMTYuODkyOCAxOC45MzlWMjQuNDk4MkwxOC4yODU3IDIzLjQwMDVDMTguNjQyOCAyMy4wNjU3IDE5LjIwOCAyMy4wNzkzIDE5LjU0OCAyMy40MzA5QzE5Ljg4ODEgMjMuNzgyNCAxOS44NzQzIDI0LjMzODkgMTkuNTE3MyAyNC42NzM3TDE2LjYxNTggMjcuMTg2MUMxNi4yNzA5IDI3LjUwOTQgMTUuNzI5MSAyNy41MDk0IDE1LjM4NDIgMjcuMTg2MUwxMi40ODI4IDI0LjY3MzdDMTIuMTI1NyAyNC4zMzg5IDEyLjExMTkgMjMuNzgyNCAxMi40NTIgMjMuNDMwOUMxMi43OTIgMjMuMDc5MyAxMy4zNTcyIDIzLjA2NTcgMTMuNzE0MyAyMy40MDA1TDE1LjEwNzEgMjQuNDk4MkwxNS4xMDcxIDEzLjA2OTZMMTUuMTA3MiAxMy4wNjA5VjcuNTAxODNMMTMuNzE0MyA4LjU5OTQ2QzEzLjM1NzIgOC45MzQzMSAxMi43OTIgOC45MjA3MyAxMi40NTIgOC41NjkxNUMxMi4xMTE5IDguMjE3NTYgMTIuMTI1NyA3LjY2MTEgMTIuNDgyOCA3LjMyNjI1TDE1LjM4NDMgNC44MTM5NUMxNS43MjkxIDQuNDkwNTkgMTYuMjcxIDQuNDkwNTkgMTYuNjE1OCA0LjgxMzk1TDE5LjUxNzMgNy4zMjYyNVpNMTAuMDk3NSAxOS45MTM4QzEwLjQ0OTEgMjAuMjUzOSAxMS4wMDU2IDIwLjI0MDEgMTEuMzQwNCAxOS44ODNMMTMuODUyNyAxNi45ODE2QzE0LjE3NjEgMTYuNjM2NyAxNC4xNzYxIDE2LjA5NDkgMTMuODUyNyAxNS43NUwxMS4zNDA0IDEyLjg0ODVDMTEuMDA1NiAxMi40OTE0IDEwLjQ0OTEgMTIuNDc3NyAxMC4wOTc1IDEyLjgxNzdDOS43NDU5NCAxMy4xNTc4IDkuNzMyMzYgMTMuNzIzIDEwLjA2NzIgMTQuMDgwMUwxMS4xNjQ4IDE1LjQ3MjlMNS40NTA1NCAxNS40NzI5QzQuOTY1MDIgMTUuNDcyOSA0LjU3MTQyIDE1Ljg3MjcgNC41NzE0MiAxNi4zNjU4QzQuNTcxNDIgMTYuODU4OSA0Ljk2NTAxIDE3LjI1ODcgNS40NTA1NCAxNy4yNTg3TDExLjE2NDggMTcuMjU4N0wxMC4wNjcyIDE4LjY1MTVDOS43MzIzNiAxOS4wMDg2IDkuNzQ1OTQgMTkuNTczNyAxMC4wOTc1IDE5LjkxMzhaTTIwLjY2MzQgMTIuODQ4NUMyMC45OTgyIDEyLjQ5MTQgMjEuNTU0NyAxMi40Nzc3IDIxLjkwNjMgMTIuODE3N0MyMi4yNTc5IDEzLjE1NzggMjIuMjcxNSAxMy43MjMgMjEuOTM2NiAxNC4wOEwyMC44MzkgMTUuNDcyOUgyNi41NTMzQzI3LjAzODggMTUuNDcyOSAyNy40MzI0IDE1Ljg3MjYgMjcuNDMyNCAxNi4zNjU4QzI3LjQzMjQgMTYuODU4OSAyNy4wMzg4IDE3LjI1ODYgMjYuNTUzMyAxNy4yNTg2SDIwLjgzOUwyMS45MzY2IDE4LjY1MTVDMjIuMjcxNSAxOS4wMDg2IDIyLjI1NzkgMTkuNTczNyAyMS45MDYzIDE5LjkxMzhDMjEuNTU0NyAyMC4yNTM5IDIwLjk5ODIgMjAuMjQwMSAyMC42NjM0IDE5Ljg4M0wxOC4xNTExIDE2Ljk4MTVDMTcuODI3NyAxNi42MzY3IDE3LjgyNzcgMTYuMDk0OCAxOC4xNTExIDE1Ljc1TDIwLjY2MzQgMTIuODQ4NVoiIGNsaXAtcnVsZT0iZXZlbm9kZCIgZmlsbC1ydWxlPSJldmVub2RkIi8+JiN4YTs8L3N2Zz4=;fontFamily=VK Sans Display;whiteSpace=wrap;" parent="1" vertex="1">
          <mxGeometry x="1620" y="25.5" width="29" height="29" as="geometry" />
        </mxCell>
        <mxCell id="s1mG0tJND3tc6fStOFF7-21" value="vkcloud-net" style="shape=image;verticalLabelPosition=bottom;labelBackgroundColor=default;verticalAlign=top;aspect=fixed;imageAspect=0;editableCssRules=.*;image=data:image/svg+xml,PHN2ZyB4bWxucz0iaHR0cDovL3d3dy53My5vcmcvMjAwMC9zdmciIGZpbGw9Im5vbmUiIHZpZXdCb3g9IjIuOTE2NjYwMDcwNDE5MzExNSAyLjkxNjY2MDA3MDQxOTMxMTUgMjIuMTY2NjM5MzI4MDAyOTMgMjIuMTY2NjM5MzI4MDAyOTMiIGhlaWdodD0iMjIuMTY2NjM5MzI4MDAyOTMiIHdpZHRoPSIyMi4xNjY2MzkzMjgwMDI5MyI+JiN4YTs8cGF0aCBmaWxsPSIjMDA3N0ZGIiBkPSJNMjUuMDgzMyA3LjA3MjkxQzI1LjA4MzMgOS4zNjgzNCAyMy4yMjI1IDExLjIyOTIgMjAuOTI3MSAxMS4yMjkyQzIwLjM3MDkgMTEuMjI5MiAxOS44NDAyIDExLjExOTkgMTkuMzU1NCAxMC45MjE3QzE5LjA1MTcgMTAuNzk3NiAxOC42OTM0IDEwLjg0OTEgMTguNDc0NyAxMS4wOTM3TDE2LjI4MzEgMTMuNTQ0NkMxNi4wNDggMTMuODA3NSAxNi4wNDggMTQuMjA1IDE2LjI4MzEgMTQuNDY4TDE4LjQ2NiAxNi45MDk4QzE4LjY4NSAxNy4xNTQ5IDE5LjA0NDEgMTcuMjA2MiAxOS4zNDgyIDE3LjA4MTJDMTkuODM1IDE2Ljg4MTIgMjAuMzY4MSAxNi43NzA4IDIwLjkyNzEgMTYuNzcwOEMyMy4yMjI1IDE2Ljc3MDggMjUuMDgzMyAxOC42MzE2IDI1LjA4MzMgMjAuOTI3MUMyNS4wODMzIDIzLjIyMjUgMjMuMjIyNSAyNS4wODMzIDIwLjkyNzEgMjUuMDgzM0MxOC42MzE2IDI1LjA4MzMgMTYuNzcwOCAyMy4yMjI1IDE2Ljc3MDggMjAuOTI3MUMxNi43NzA4IDIwLjMyNzYgMTYuODk3OCAxOS43NTc3IDE3LjEyNjIgMTkuMjQyOUMxNy4yNDk1IDE4Ljk2NSAxNy4yMjM1IDE4LjYzNSAxNy4wMjA2IDE4LjQwODZMMTQuMjA2NSAxNS4yNjk0QzE0LjA3NTEgMTUuMTIyOCAxMy44ODc1IDE1LjAzOTEgMTMuNjkwNyAxNS4wMzkxSDExLjYzNTJDMTEuMzE5MSAxNS4wMzkxIDExLjA0ODggMTUuMjU1NyAxMC45MzA5IDE1LjU0OUMxMC4zMTY3IDE3LjA3NzMgOC44MjA4MyAxOC4xNTYyIDcuMDcyOTEgMTguMTU2MkM0Ljc3NzQ3IDE4LjE1NjIgMi45MTY2NiAxNi4yOTU0IDIuOTE2NjYgMTRDMi45MTY2NiAxMS43MDQ2IDQuNzc3NDcgOS44NDM3NCA3LjA3MjkxIDkuODQzNzRDOC44MjA4MyA5Ljg0Mzc0IDEwLjMxNjcgMTAuOTIyNyAxMC45MzA5IDEyLjQ1MUMxMS4wNDg4IDEyLjc0NDMgMTEuMzE5MSAxMi45NjA5IDExLjYzNTIgMTIuOTYwOUgxMy42OTE0QzEzLjg4NzggMTIuOTYwOSAxNC4wNzUgMTIuODc3NSAxNC4yMDY0IDEyLjczMTVMMTcuMDIzMiA5LjYwMDE1QzE3LjIyNzIgOS4zNzMzOSAxNy4yNTMzIDkuMDQyMDkgMTcuMTI5MSA4Ljc2MzUxQzE2Ljg5ODggOC4yNDcwMiAxNi43NzA4IDcuNjc0OTEgMTYuNzcwOCA3LjA3MjkxQzE2Ljc3MDggNC43Nzc0NyAxOC42MzE2IDIuOTE2NjYgMjAuOTI3MSAyLjkxNjY2QzIzLjIyMjUgMi45MTY2NiAyNS4wODMzIDQuNzc3NDcgMjUuMDgzMyA3LjA3MjkxWk0yMy4wMDUyIDcuMDcyOTFDMjMuMDA1MiA4LjIyMDYyIDIyLjA3NDggOS4xNTEwMyAyMC45MjcxIDkuMTUxMDNDMTkuNzc5NCA5LjE1MTAzIDE4Ljg0ODkgOC4yMjA2MiAxOC44NDg5IDcuMDcyOTFDMTguODQ4OSA1LjkyNTE5IDE5Ljc3OTQgNC45OTQ3OCAyMC45MjcxIDQuOTk0NzhDMjIuMDc0OCA0Ljk5NDc4IDIzLjAwNTIgNS45MjUxOSAyMy4wMDUyIDcuMDcyOTFaTTkuMTUxMDMgMTRDOS4xNTEwMyAxNS4xNDc3IDguMjIwNjIgMTYuMDc4MSA3LjA3MjkxIDE2LjA3ODFDNS45MjUxOSAxNi4wNzgxIDQuOTk0NzggMTUuMTQ3NyA0Ljk5NDc4IDE0QzQuOTk0NzggMTIuODUyMyA1LjkyNTE5IDExLjkyMTkgNy4wNzI5MSAxMS45MjE5QzguMjIwNjIgMTEuOTIxOSA5LjE1MTAzIDEyLjg1MjMgOS4xNTEwMyAxNFpNMjAuOTI3MSAyMy4wMDUyQzIyLjA3NDggMjMuMDA1MiAyMy4wMDUyIDIyLjA3NDggMjMuMDA1MiAyMC45MjcxQzIzLjAwNTIgMTkuNzc5NCAyMi4wNzQ4IDE4Ljg0ODkgMjAuOTI3MSAxOC44NDg5QzE5Ljc3OTQgMTguODQ4OSAxOC44NDg5IDE5Ljc3OTQgMTguODQ4OSAyMC45MjcxQzE4Ljg0ODkgMjIuMDc0OCAxOS43Nzk0IDIzLjAwNTIgMjAuOTI3MSAyMy4wMDUyWiIgY2xpcC1ydWxlPSJldmVub2RkIiBmaWxsLXJ1bGU9ImV2ZW5vZGQiLz4mI3hhOzwvc3ZnPg==;fontFamily=VK Sans Display;" parent="1" vertex="1">
          <mxGeometry x="1710" y="29.5" width="22" height="22" as="geometry" />
        </mxCell>
        <mxCell id="s1mG0tJND3tc6fStOFF7-22" value="VM" style="shape=image;verticalLabelPosition=bottom;labelBackgroundColor=default;verticalAlign=top;aspect=fixed;imageAspect=0;editableCssRules=.*;image=data:image/svg+xml,PHN2ZyB4bWxucz0iaHR0cDovL3d3dy53My5vcmcvMjAwMC9zdmciIGZpbGw9Im5vbmUiIHZpZXdCb3g9IjIuOTE2NjYwMDcwNDE5MzExNSAyLjkxNjY2MDA3MDQxOTMxMTUgMjQuMTQ0MTQwMjQzNTMwMjczIDI0LjUwODkzOTc0MzA0MTk5MiIgaGVpZ2h0PSIyNC41MDg5Mzk3NDMwNDE5OTIiIHdpZHRoPSIyNC4xNDQxNDAyNDM1MzAyNzMiPiYjeGE7PHBhdGggZmlsbD0iIzAwNzdGRiIgZD0iTTIuOTE2NjYgMTRDMi45MTY2NiA4Ljc3NTI2IDIuOTE2NjYgNi4xNjI4OSA0LjUzOTc3IDQuNTM5NzdDNi4xNjI4OSAyLjkxNjY2IDguNzc1MjYgMi45MTY2NiAxNCAyLjkxNjY2QzE5LjIyNDcgMi45MTY2NiAyMS44MzcxIDIuOTE2NjYgMjMuNDYwMiA0LjUzOTc3QzI1LjA4MzMgNi4xNjI4OSAyNS4wODMzIDguNzc1MjYgMjUuMDgzMyAxNEMyNS4wODMzIDE1LjE2MjYgMjUuMDYwMiAxNi40Nzc2IDI1LjAzMDggMTcuNTM5OEMyNS4wMTU5IDE4LjA3NTkgMjQuNTc1NiAxOC41IDI0LjAzOTMgMTguNUMyMy40NzMzIDE4LjUgMjMuMDE0OSAxOC4wMjkyIDIzLjAxMjEgMTcuNDYzMUMyMy4wMTExIDE3LjI1NTEgMjMuMDA5MiAxNy4wMzg2IDIzLjAwNzMgMTYuODIzQzIzLjAwNCAxNi40MzkyIDIzLjAwMDcgMTYuMDU4MyAyMy4wMDIzIDE1LjczMzRDMjMuMDA0MiAxNS4zNTAzIDIyLjY5MzYgMTUuMDM5MSAyMi4zMTA2IDE1LjAzOTFINS42ODkzOUM1LjMwNjM0IDE1LjAzOTEgNC45OTU3NyAxNS4zNTAzIDQuOTk3NjggMTUuNzMzNEM1LjAwNjQyIDE3LjQ4NDMgNS4wNDEyMiAxOC43NzggNS4xNzkxNCAxOS44MDM4QzUuMzUxMDUgMjEuMDgyNCA1LjY0ODE0IDIxLjYyOTcgNi4wMDkyMyAyMS45OTA3QzYuMzcwMzEgMjIuMzUxOCA2LjkxNzU1IDIyLjY0ODkgOC4xOTYxOCAyMi44MjA4QzguNDQ3NjUgMjIuODU0NiA4LjcxNTIxIDIyLjg4MjMgOS4wMDE2NSAyMi45MDQ4QzkuNTU4NDEgMjIuOTQ4NiAxMCAyMy40MDMxIDEwIDIzLjk2MTZDMTAgMjQuNTUxMSA5LjUwOTQgMjUuMDI2NCA4LjkyMTUgMjQuOTgyNkM2Ljg2MTUzIDI0LjgyODggNS41MjAxOCAyNC40NDA2IDQuNTM5NzcgMjMuNDYwMkMyLjkxNjY2IDIxLjgzNzEgMi45MTY2NiAxOS4yMjQ3IDIuOTE2NjYgMTRaTTIzLjAwMjMgMTIuMjY2NkMyMy4wMDQyIDEyLjY0OTYgMjIuNjkzNiAxMi45NjA5IDIyLjMxMDYgMTIuOTYwOUg1LjY4OTM5QzUuMzA2MzQgMTIuOTYwOSA0Ljk5NTc3IDEyLjY0OTYgNC45OTc2OCAxMi4yNjY2QzUuMDA2NDIgMTAuNTE1NiA1LjA0MTIyIDkuMjIyMDEgNS4xNzkxNCA4LjE5NjE4QzUuMzUxMDUgNi45MTc1NSA1LjY0ODE0IDYuMzcwMzEgNi4wMDkyMyA2LjAwOTIzQzYuMzcwMzEgNS42NDgxNCA2LjkxNzU1IDUuMzUxMDUgOC4xOTYxOCA1LjE3OTE0QzkuNTM0NTkgNC45OTkyIDExLjMyODkgNC45OTQ3OCAxNCA0Ljk5NDc4QzE2LjY3MTEgNC45OTQ3OCAxOC40NjU0IDQuOTk5MiAxOS44MDM4IDUuMTc5MTRDMjEuMDgyNCA1LjM1MTA1IDIxLjYyOTcgNS42NDgxNCAyMS45OTA3IDYuMDA5MjNDMjIuMzUxOCA2LjM3MDMxIDIyLjY0ODkgNi45MTc1NSAyMi44MjA4IDguMTk2MThDMjIuOTU4OCA5LjIyMjAxIDIyLjk5MzYgMTAuNTE1NiAyMy4wMDIzIDEyLjI2NjZaTTE1LjEyNCAyNC42NTg3TDE2LjkxNDIgMjAuNDQyOUMxNi45NzI1IDIwLjMxMTYgMTcuMDY3NyAyMC4xNTA1IDE3LjIzMjMgMjAuMDQ5NkMxNy4zODMyIDE5Ljk1NTEgMTcuNTUxMyAxOS45MjYzIDE3LjcwMzIgMTkuOTI2M0MxNy44Mzg4IDE5LjkyNjMgMTcuOTg0IDE5Ljk1MSAxOC4xMTk0IDIwLjAyMzdDMTguMjU1OSAyMC4wOTY5IDE4LjM1OTIgMjAuMjA2NiAxOC40Mjc0IDIwLjMzODFDMTguNTY5OSAyMC41OTUzIDE4LjU1MTEgMjAuODcxIDE4LjQ0MDggMjEuMTEzTDE1LjkyMjcgMjYuODg5MkMxNS44NTg0IDI3LjAzNjEgMTUuNzYyMSAyNy4xNzA1IDE1LjYyNjIgMjcuMjcyNEwxNS42MjEyIDI3LjI3NjFDMTUuNDY5NiAyNy4zODY0IDE1LjI5NjIgMjcuNDI1NiAxNS4xMzI1IDI3LjQyNTZDMTQuOTY0NiAyNy40MjU2IDE0Ljc5ODEgMjcuMzgwOSAxNC42NTE3IDI3LjI3ODFDMTQuNTA4NiAyNy4xNzc2IDE0LjQxMDggMjcuMDQwMSAxNC4zNDUgMjYuODk1MkwxNC4zNDI0IDI2Ljg4OTZMMTEuODQ0NyAyMS4xNzhDMTEuNzQxOCAyMC45MjgyIDExLjY5MjEgMjAuNjI5IDExLjgzMjEgMjAuMzQ4OEMxMS45ODY2IDIwLjAzOTkgMTIuMjgzMyAxOS45MjYzIDEyLjU3MDMgMTkuOTI2M0MxMi43MzMgMTkuOTI2MyAxMi45MDE0IDE5Ljk2MjggMTMuMDUyMyAyMC4wNjA0QzEzLjIwNDUgMjAuMTU4NiAxMy4zMDczIDIwLjI5ODQgMTMuMzcxNCAyMC40NTEyTDEzLjM3MTggMjAuNDUyMUwxNS4xMjQgMjQuNjU4N1pNMjEuMjg5NSAyNC4yMTAxVjI2LjU1NzRDMjEuMjg5NSAyNi43OTA0IDIxLjIwNTMgMjcuMDA1MSAyMS4wMzcxIDI3LjE3MzNDMjAuODY4OSAyNy4zNDE1IDIwLjY1NDMgMjcuNDI1NiAyMC40MjEyIDI3LjQyNTZDMjAuMTg4MiAyNy40MjU2IDE5Ljk3MzUgMjcuMzQxNSAxOS44MDUzIDI3LjE3MzNDMTkuNjM3MSAyNy4wMDUxIDE5LjU1MyAyNi43OTA0IDE5LjU1MyAyNi41NTc0VjIwLjc5NDZDMTkuNTUzIDIwLjU2NDEgMTkuNjMyIDIwLjM0MyAxOS44MTA0IDIwLjE3MzVDMTkuOTc3OSAyMC4wMDg4IDIwLjE5MDUgMTkuOTI2MyAyMC40MjEyIDE5LjkyNjNDMjAuNzU3NyAxOS45MjYzIDIxLjAyMjcgMjAuMDk5NyAyMS4xODIzIDIwLjM3OTFMMjEuMTg4MiAyMC4zODk1TDIzLjMzNDIgMjQuNjg4M0wyNS40MjQ0IDIwLjM5MTRMMjUuNDMxNCAyMC4zNzkxQzI1LjU5MTEgMjAuMDk5NyAyNS44NTYxIDE5LjkyNjMgMjYuMTkyNSAxOS45MjYzQzI2LjQyMzIgMTkuOTI2MyAyNi42MzU5IDIwLjAwODggMjYuODAzMyAyMC4xNzM2QzI2Ljk4MTggMjAuMzQzIDI3LjA2MDggMjAuNTY0MSAyNy4wNjA4IDIwLjc5NDZWMjYuNTU3NEMyNy4wNjA4IDI2Ljc5NzEgMjYuOTY4OCAyNy4wMTI4IDI2Ljc5NTEgMjcuMTc4MUMyNi42MzE4IDI3LjMzOSAyNi40MjM2IDI3LjQyNTYgMjYuMTkyNSAyNy40MjU2QzI1Ljk1OTUgMjcuNDI1NiAyNS43NDQ4IDI3LjM0MTUgMjUuNTc2NiAyNy4xNzMzQzI1LjQwODQgMjcuMDA1MSAyNS4zMjQzIDI2Ljc5MDQgMjUuMzI0MyAyNi41NTc0VjI0LjE1ODVMMjQuMDYwNSAyNi43MzQzTDI0LjA0NjIgMjYuNzU2MkMyMy44ODEyIDI3LjAwODUgMjMuNjI3MSAyNy4xNzAyIDIzLjMwNjkgMjcuMTcwMkMyMy4xNDQzIDI3LjE3MDIgMjIuOTgwNCAyNy4xMzEyIDIyLjgzMzQgMjcuMDM2MkMyMi42ODgzIDI2Ljk0MjUgMjIuNTg2IDI2LjgxMTUgMjIuNTE2NSAyNi42Njg4TDIxLjI4OTUgMjQuMjEwMVoiIGNsaXAtcnVsZT0iZXZlbm9kZCIgZmlsbC1ydWxlPSJldmVub2RkIi8+JiN4YTs8L3N2Zz4=;fontFamily=VK Sans Display;" parent="1" vertex="1">
          <mxGeometry x="1795" y="29" width="24" height="25" as="geometry" />
        </mxCell>
      </root>
    </mxGraphModel>
  </diagram>
</mxfile>
